/* XPM */
static char *_a94589cc3f8422befead569cbe468fakBO3B4fh1CtKiaju[] = {
/* columns rows colors chars-per-pixel */
"49 48 215 2 ",
"   c None",
".  c #37062E",
"X  c #390634",
"o  c #3C0C35",
"O  c #3C0D3A",
"+  c #370337",
"@  c #420F3A",
"#  c #42103E",
"$  c #4A163A",
"%  c #551A35",
"&  c #541E2F",
"*  c #5A2A3E",
"=  c #712C2E",
"-  c #6D2D3D",
";  c #4B1A44",
":  c #531D43",
">  c #571F49",
",  c #532145",
"<  c #55224C",
"1  c #59264D",
"2  c #5D2B49",
"3  c #5D3549",
"4  c #562451",
"5  c #5A2C52",
"6  c #572653",
"7  c #4F2244",
"8  c #63354B",
"9  c #6B3447",
"0  c #73394A",
"q  c #662F52",
"w  c #6A3D53",
"e  c #683558",
"r  c #773A52",
"t  c #612146",
"y  c #683461",
"u  c #723E66",
"i  c #6E4255",
"p  c #7D545F",
"a  c #784B58",
"s  c #764C63",
"d  c #795469",
"f  c #7E5871",
"g  c #824A3B",
"h  c #93593D",
"j  c #AA532E",
"k  c #B05726",
"l  c #B35822",
"z  c #B55926",
"x  c #BE7B3F",
"c  c #DC751F",
"v  c #C96926",
"b  c #DA7221",
"n  c #88464E",
"m  c #9B5C45",
"M  c #995A49",
"N  c #874C5B",
"B  c #9F6048",
"V  c #A76D48",
"C  c #BA7B42",
"Z  c #B77A44",
"A  c #B07655",
"S  c #8A4F6A",
"D  c #835D6C",
"F  c #865A68",
"G  c #835C73",
"H  c #9C5B71",
"J  c #975365",
"K  c #AC5E6E",
"L  c #AB5B72",
"P  c #A75B72",
"I  c #B05E6E",
"U  c #8A6369",
"Y  c #876067",
"T  c #8A637B",
"R  c #8A6877",
"E  c #996479",
"W  c #9E7872",
"Q  c #AE616D",
"!  c #BA6D66",
"~  c #B3656C",
"^  c #B66B6B",
"/  c #BA6D69",
"(  c #B56965",
")  c #BD7265",
"_  c #BF7268",
"`  c #BD7A6C",
"'  c #A86670",
"]  c #B8797B",
"[  c #D17E4C",
"{  c #C97C5E",
"}  c #C37664",
"|  c #C67B63",
" . c #C97D62",
".. c #C27569",
"X. c #C87D68",
"o. c #F29F3A",
"O. c #EEA23E",
"+. c #F6A63F",
"@. c #B38D7B",
"#. c #B38F76",
"$. c #B3927B",
"%. c #B28A6F",
"&. c #DC9B4B",
"*. c #DA9948",
"=. c #CD835D",
"-. c #C9885B",
";. c #D2855E",
":. c #D58B5C",
">. c #D88E5C",
",. c #DC9457",
"<. c #DB935A",
"1. c #DF9953",
"2. c #C58747",
"3. c #EC9C41",
"4. c #E09756",
"5. c #E49C55",
"6. c #E39B59",
"7. c #E59B58",
"8. c #EAA94C",
"9. c #F5A540",
"0. c #F3AC4E",
"q. c #FEBB46",
"w. c #F6B24E",
"e. c #FAB54D",
"r. c #FEBA4B",
"t. c #EBA453",
"y. c #EEA953",
"u. c #E8A157",
"i. c #F2AC52",
"p. c #F1AE5B",
"a. c #F5B151",
"s. c #F8B351",
"d. c #FDBA53",
"f. c #FFBF59",
"g. c #CC8261",
"h. c #D08561",
"j. c #D48A60",
"k. c #D59A66",
"l. c #D3966A",
"z. c #D69977",
"x. c #DEA66A",
"c. c #DFAC70",
"v. c #F7BD63",
"b. c #E4A972",
"n. c #E0A464",
"m. c #FDCC54",
"M. c #FDC35E",
"N. c #FFDA5E",
"B. c #FFC34A",
"V. c #FEC364",
"C. c #FDC86E",
"Z. c #FAC768",
"A. c #F8D666",
"S. c #FDCA73",
"D. c #F7C475",
"F. c #FFD37F",
"G. c #FEE068",
"H. c #967487",
"J. c #9C7C90",
"K. c #BA7887",
"L. c #A98C89",
"P. c #BD8488",
"I. c #A38692",
"U. c #A58A91",
"Y. c #B3999D",
"T. c #B29589",
"R. c #B59AA2",
"E. c #BDA2A8",
"W. c #C5938B",
"Q. c #D2A688",
"!. c #CAAC9A",
"~. c #CEB399",
"^. c #D6B897",
"/. c #DCBA8F",
"(. c #C28BAF",
"). c #D5BBA3",
"_. c #D4B8A7",
"`. c #CBB4B2",
"'. c #CFBAB6",
"]. c #D3BDBA",
"[. c #D2B6B3",
"{. c #E3B8A1",
"}. c #D9C49C",
"|. c #FBCD83",
" X c #FDD28C",
".X c #FFD480",
"XX c #F6D194",
"oX c #FFD994",
"OX c #FCD698",
"+X c #DAC2A4",
"@X c #D9C2B7",
"#X c #E2C8A6",
"$X c #FCDCA6",
"%X c #FEDFAA",
"&X c #E3CAB6",
"*X c #EBD6B9",
"=X c #FDE2AD",
"-X c #FEE3B4",
";X c #FEE4BB",
":X c #FFE9BD",
">X c #F1E1BD",
",X c #D7C1C0",
"<X c #E7CEC4",
"1X c #E4D2C3",
"2X c #EED4C7",
"3X c #F1DBC8",
"4X c #FBE6C2",
"5X c #F8E5C7",
"6X c #FBEBD3",
"7X c #FDEEDB",
"8X c #F4E4D4",
"9X c #FEF5DD",
"0X c #FEF0D1",
"qX c #FFF6E2",
"wX c #FFF8E3",
/* pixels */
"                                            X X . . o                                             ",
"                                          4 p @X].@XY o                                           ",
"                                          4 V z.K.z.V +                                           ",
"                                          6 n / K ! n +                                           ",
"                                          6 B t.u.t.m +                                           ",
"                                          4 V 6.} 7.V X                                           ",
"                                          1 n / L / n X                                           ",
"                                          4 M 4.4.6.M X                                           ",
"      1 4 4 1 4 4 4 4 4 4 4 4 4 4 4 4 4 6 H.c.5.=.5.c.H.1 4 4 4 4 4 4 4 4 4 4 4 4 1 1 4 4 1       ",
"    T I.I.I.I.I.I.I.I.I.I.I.I.I.I.I.I.I.I./.b./ P / b./.I.I.I.I.I.I.I.I.I.I.I.I.I.I.I.I.I.I.T     ",
"  T @XwX;XoXoXoXoXoXoXoXoXoXoXoXoXoXoXoX{.z.! L L L / z.{.oXoXoXoXoXoXoXoXoXoXoXoXoXoXoX;XqX,XT   ",
"o R.qX-XC.t.5.r.0.>.4.r.q.e.,.:.>.a.r.q.4.;.:._ L _ :.;.4.q.r.a.>.:.<.e.q.e.4.>.0.r.5.t.C.-X9XR.@ ",
"O Y.9X Xt.:.5.i.g.^ <.i.<.j.~ X.:.w.r.5.<.<.<.} L } <.<.<.5.r.w.:.X.~ :.<.i.<.^ g.i.4.:.t. X9XY.O ",
"o L.6X X;.;.0. .L } r.t.~ I h.w.r.5.<./ L L L K L L L L P / <.5.r.w.g.K ~ y.r.} L g.0.=.;. X6XL.O ",
"o F _.OXx.4.t.) ~ >.w.>.~ =.s.q.6.^ }  . .| | / L /  . .|  .) ^ 7.q.s.g.~ >.w.:.~ _ t.1.x.$X_.F @ ",
"  2 U ).XXZ.V.5.>.r.t.L / a.r.e.=.| y.r.r.r.r.h.L j.r.r.r.r.y.| =.e.r.a./ Q t.r.>.t.V.Z.XX^.Y q   ",
"    e Y @.~.OXV.r.r.t.~ g.e.r.r.r.r.r.y.t.t.u.| L | t.t.t.y.r.r.r.r.r.e.g.~ t.r.r.V.OX~.@.Y e     ",
"      1 ; F ~.$XM.q.t.=.e.q.r.r.r.0.u._ K L K K L K L L K _ t.0.r.r.r.r.w.=.y.q.M.$X~.F ;         ",
"            p ).=XV.d.e.e.y.y.e.t./ / _ ! / / ~ L ~ / / ! _ / ! t.e.y.y.e.e.r.V.=X).p             ",
"            1 U 6X%Xr.e.u.} { y. .) t.e.e.e.e.g.L g.e.e.e.e.t.) g.y.{ } t.e.r.%X6XD 5             ",
"              s _.-XM.0.=.i.w.r.w.w.i.i.i.0.i.g.L g.0.0.0.i.i.w.w.r.w.i.=.0.M.;X_.a               ",
"              u D 6X%Xd.a.w.q.r.w.i.} ~ ~ ~ ~ ~ L ~ ~ ~ ~ ~ } i.w.r.q.w.a.d.%X6XD e               ",
"              y i &X-Xr.t.=.w.0...) ( ~ ~ ~ ~ Q L Q ~ ~ ~ ~ ( ! } i.w. .t.d.;X&Xw                 ",
"              e i #X-Xi.=.y.a.| ! 6.i.i.i.i.i.g.L g.i.i.i.i.i.6.( | a.t.=.i.-X#Xw                 ",
"              y i #X-Xd.i.e.r.i.i.e.r.r.e.e.e.g.L h.r.e.e.e.r.e.y.i.r.e.i.d.-X#Xw                 ",
"              y s 8X;Xd.i.;.s.r.r.q.e.g._ _ _ ~ L ~ .._ _ h.e.q.r.r.s.;.i.d.:X8Xs                 ",
"              y f 9X=Xp.;.5.r.r.s.g...~ K L L K L K L L K ~ ..;.w.r.r.u.=.p.-X7Xd                 ",
"              G @X4XC.e.t.r.r.e.g.~ :.5.5.6.6.} L } 6.6.5.5.:.~ =.e.r.r.t.e.C.4X].G               ",
"            < G 9X=Xr.0.>.e.r.e.5.5.e.r.<. .g.^ L / g. .,.r.e.4.5.e.r.e.>.0.r.=XqXf 1             ",
"            f [.;XS.i.} ! w.r.r.r.r.<. .^ L L K L L L L ^  .<.r.r.r.r.w.! | i.S.4X`.d             ",
"        # f '.:XS.r.t.K / w.r.r.e.j.~ L g.,.<...L ..<.,.g.L ~ :.e.r.r.w./ K t.r.S.4X`.f @         ",
"      T J.`.:XS.q.r.u.K / e.r.r.e.<.:.<.i.q.r.t.>.t.r.r.i.<.:.4.e.r.r.e./ Q t.r.q.S.:X`.J.G       ",
"    T ].:XoXS.t.5.r.i.=.~ <.e.r.r.r.r.C &.r.r.t.:.t.q.r.*.C r.r.r.r.e.<.~ =.i.r.5.y.S.oX:X'.T     ",
"  G ].:XS.q.q.<.! 5.r.w.g.~ >.e.r.r.C h *.7.>.) L ) >.7.*.h C r.r.e.>.~ g.w.r.4.! <.q.q.S.:X].f   ",
"o R.qX Xq.y.t.,.L } r.r.a.h.;.e.r.Z & 2.r.4.g./ K / g.4.r.2.& Z e.w.;.h.w.r.e.} K 4.t.0.q. XqXR.o ",
"O Y.9X Xq.>.=.t._ / 5.r.r.r.r.e.C 9 2 m 8.t.4.:.{ :.4.t.8.m t 9 C e.r.r.r.r.5./ _ t.g.>.q. X9XY.O ",
"o L.0X%XV.5.;.y.t.| :.r.r.e.O.C 0 ' ] r m -.^ g.5. .^ -.m r ] ' 0 x O.r.r.r.:.| t.y.;.5.V.%X0XL.@ ",
"$ U +X5XXXv.<.[ +.9.9.+.9.o.v % J Q./.W.D %.k.^ K ^ k.%.D W./.Q.J % v o.9.+.9.9.9.[ <.v.XX5X).U $ ",
"  ; U $.@.#.A j k k k z b c v = N W.#X5X6XQ.k.l.` l.k.Q.6X5X#XW.N = v c b z k k k j A #.@.$.U 7   ",
"    q , < < : : : : : - k l l j r S &X1X8XOXl.n.A.x.l.OX8X1X&XS 0 j l l k - : : : : : < < , e     ",
"                        > $ $ , `.D _.s U.5X|.q.B.e.|.8XU.d _.U `.: $ : <                         ",
"                              2 [.3XD.g * !.F.m.N.m..X!.* g D.3X[.2                               ",
"                            , H P.3XS.&.&.i.m.N.A.N.m.i.8.0.|.3XP.H :                             ",
"                            ; [.2X6X*XF -.3.8.A.G.A.8.3.f.C.*X6X2X[.;                             ",
"                            : E P.<XG R.5X;XW L.>XL.W ;X4X!.G <XP.E :                             ",
"                              q @.!.3 E.7X7X1XR 6 H.1X0X7XR.3 !.@.8                               ",
"                                w 2 # 5 T.}.+XF X D +X}.T.5 # 2 w                                 ",
"                                        w 8 8 E (.E 8 8 w                                         "
};
