/* XPM */
static char *_4a782ee2e12481ce027af6b6722d839tUpefOUft7uxn6Yg[] = {
/* columns rows colors chars-per-pixel */
"48 48 5 1 ",
"  c #3D3347",
". c #3D3247",
"X c #3D3346",
"o c #3C3347",
"O c white",
/* pixels */
"  ..XX            oo      ..                  XX",
"  ..XX            oo      ..                  XX",
"oo..  oo    oo..XX    XX      oo..  oo          ",
"oo..  oo    oo..XX    XX      oo..  oo          ",
"oo  XX      oo      ..    ..          ..  oo  XX",
"oo  XX      oo      ..    ..          ..  oo  XX",
"          XXoo..  oo..XX  ..XX    XXoo..XXoo  XX",
"          XXoo..  oo..XX  ..XX    XXoo..XXoo  XX",
"            oo    oo  XX        ..      XX      ",
"            oo    oo  XX        ..      XX      ",
"oo          oo..    ..XXoo    oo          oo..  ",
"oo          oo..    ..XXoo    oo          oo..  ",
"              ..  oo                    XX      ",
"              ..  oo                    XX      ",
"oo  XX  ..XX          XX      oo  XXoo    oo  XX",
"oo  XX  ..XX          XX      oo  XXoo    oo  XX",
"oo                  ..  oo      ..    ..    ..XX",
"oo                  ..  oo      ..    ..    ..XX",
"    XX  ..        oo..XX    XXoo        XX      ",
"    XX  ..        oo..XX    XXoo        XX      ",
"  ..        oo      ..      XX          XX  ..  ",
"  ..        oo      ..      XX          XX  ..  ",
"oo    oo  XXoo  XX                    ..  oo    ",
"oo    oo  XXoo  XX                    ..  oo    ",
"  ..        oo..  oo  XX  ..XXoo    oo    oo..  ",
"  ..        oo..  oo  XX  ..XXoo    oo    oo..  ",
"                XX              ..      XXoo..  ",
"                XX              ..      XXoo..  ",
"                XX      oo..                    ",
"                XX      oo..                    ",
"            oo        XX                XX    XX",
"            oo        XX                XX    XX",
"        ..          ..  oo  XX          XX  ..  ",
"        ..          ..  oo  XX          XX  ..  ",
"oo..XX  ..      XX      oo..XXoo  XX      oo    ",
"oo..XX  ..      XX      oo..XXoo  XX      oo    ",
"oo..XX  ..        oo              XXoo    oo    ",
"oo..XX  ..        oo              XXoo    oo    ",
"          XX  ..    ..    ..      XX  ..      XX",
"          XX  ..    ..    ..      XX  ..      XX",
"          XXoo    oo        XX        ..XXoo..  ",
"          XXoo    oo        XX        ..XXoo..  ",
"    XXoo..      XX    XX    XXoo..    ..XX    XX",
"    XXoo..      XX    XX    XXoo..    ..XX    XX",
"oo  XXoo  XX  ..XX              ..        oo    ",
"oo  XXoo  XX  ..XX              ..        oo    ",
"  ..XX      oo            ..XX      oo          ",
"  ..XX      oo            ..XX      oo          "
};
