/* XPM */
static char *_cb709fc40164e77dd3c94a14028d913bQxUt6r3rU5SMRBB[] = {
/* columns rows colors chars-per-pixel */
"48 48 164 2 ",
"   c #040602",
".  c #080707",
"X  c #070805",
"o  c #080907",
"O  c #060708",
"+  c #0B0A0B",
"@  c #0E0C12",
"#  c #100D16",
"$  c #120E1B",
"%  c #121017",
"&  c #14101D",
"*  c #150F20",
"=  c #161123",
"-  c #191225",
";  c #17122A",
":  c #1C152D",
">  c #1C152D",
",  c #1D142E",
"<  c #1D152E",
"1  c #1C152F",
"2  c #1D152F",
"3  c #1A132B",
"4  c #1C1430",
"5  c #1E1531",
"6  c #1D1631",
"7  c #1E1631",
"8  c #1E1633",
"9  c #1F1633",
"0  c #1F1634",
"q  c #1F1635",
"w  c #1E1632",
"e  c #1E1738",
"r  c #211026",
"t  c #2A132D",
"y  c #201733",
"u  c #201734",
"i  c #201735",
"p  c #201636",
"a  c #201736",
"s  c #211736",
"d  c #201737",
"f  c #211737",
"g  c #201736",
"h  c #211837",
"j  c #231837",
"k  c #221837",
"l  c #221739",
"z  c #21173A",
"x  c #221739",
"c  c #23183B",
"v  c #23183D",
"b  c #24193D",
"n  c #241A3E",
"m  c #23193C",
"M  c #251A40",
"N  c #271A41",
"B  c #271B42",
"V  c #271C40",
"C  c #271C43",
"Z  c #271B45",
"A  c #271C44",
"S  c #261B43",
"D  c #281D41",
"F  c #281B45",
"G  c #281B46",
"H  c #291B45",
"J  c #2A1E48",
"K  c #2B1D4A",
"L  c #2B1E4C",
"P  c #2D1D4E",
"I  c #2D1F4F",
"U  c #2B1D4B",
"Y  c #3A1744",
"T  c #351A45",
"R  c #3A1944",
"E  c #321C49",
"W  c #391B49",
"Q  c #2D1F50",
"!  c #2E1F51",
"~  c #301F54",
"^  c #311F53",
"/  c #3D3346",
"(  c #3D3247",
")  c #3C3347",
"_  c #3D3347",
"`  c #3D3347",
"'  c #2F2053",
"]  c #2F2052",
"[  c #35235C",
"{  c #34225C",
"}  c #362461",
"|  c #372566",
" . c #352667",
".. c #372461",
"X. c #382463",
"o. c #392566",
"O. c #392567",
"+. c #392565",
"@. c #3D2565",
"#. c #392565",
"$. c #3B2669",
"%. c #3B276B",
"&. c #3B2669",
"*. c #3E2770",
"=. c #3E2A73",
"-. c #3F2D7B",
";. c #4E1D59",
":. c #531F60",
">. c #412262",
",. c #472263",
"<. c #452161",
"1. c #402365",
"2. c #482162",
"3. c #4C2163",
"4. c #512369",
"5. c #4D2774",
"6. c #402973",
"7. c #432974",
"8. c #422B7A",
"9. c #4A2A7A",
"0. c #552776",
"q. c #532979",
"w. c #442F81",
"e. c #572F8C",
"r. c #5D2E8A",
"t. c #4B3087",
"y. c #4C328D",
"u. c #55318E",
"i. c #5C308E",
"p. c #4D3391",
"a. c #4F379C",
"s. c #513393",
"d. c #5C3295",
"f. c #54359B",
"g. c #5C349A",
"h. c #622B86",
"j. c #612D8B",
"k. c #6C2D8C",
"l. c #6D2F96",
"z. c #752F97",
"x. c #792D96",
"c. c #752F98",
"v. c #643196",
"b. c #6B3197",
"n. c #633299",
"m. c #6B3199",
"M. c #743097",
"N. c #713198",
"B. c #5F37A7",
"V. c #5C38A4",
"C. c #5C3AAB",
"Z. c #6436A4",
"A. c #6C35A4",
"S. c #6338A5",
"D. c #6437A9",
"F. c #6D36A9",
"G. c #6439AA",
"H. c #6B39AA",
"J. c #7434A4",
"K. c #7A34A5",
"L. c #7236AA",
"P. c #623EB6",
"I. c #643DB9",
"U. c #703DBA",
/* pixels */
"_ _ _ _ _ + = j , + o + + + + + - D # + + + + + + # y y % o + + + + + # C , + + + + + # _ _ _ _ ",
"_ _ _ _ _ o $ 9 ; o 0 3 X   o o = n + $ 9 -       @ , , + $ c +     + + n = + , , +   + _ _ _ _ ",
"_ _ _ _ _ + @ @ + o v f $ ; + o @ #   = f , - # + + # @ o - F $ - # X + # + + f , 1 = @ _ _ _ _ ",
"_ _ _ _ _ + X   X + @ $ f K @       X @ @ & I , +       o @ # ; K 3   o     + @ + M C & _ _ _ _ ",
"_ _ _ _ _ + + $ ; @ X # = @ +   + - - + + $ = @ o o @ ; $ + + = $ + X o $ ; # X @ = # + _ _ _ _ ",
"_ _ _ _ _ @ 1 X.$.;   1 A X   @ M $.[ + + n ; +   = I 6.M + + L $   + ; ..$.9   f f @ + _ _ _ _ ",
"_ _ _ _ _ = Z ' l # = 9 ; X   1 I F 9 # - j #   + f ~ Z = # 1 9 @   @ K K l = # l - + + _ _ _ _ ",
"_ _ _ _ _ & 3 @   o M 3   +   = -     # 9 #     + = =     = v       @ f +   + j ; +   + _ _ _ _ ",
"_ _ _ _ _ +     + + , - + + + o X + X $ 1 = o + + o X + + = 0 @ + + o   X   @ ; - @   + _ _ _ _ ",
"_ _ _ _ _ + + + + + X o o o t ;.4.>.3.1. .o.o.o.3.:.<.2.<.@. .o.*.! #   + + + X X + + + _ _ _ _ ",
"_ _ _ _ _ + & c , o + +     R k.J.m.m.v.d.f.f.f.m.c.b.m.m.v.s.f.C.8.- + M ; X + +     + _ _ _ _ ",
"_ _ _ _ _ + & f 3 o 9 , + + W v.L.A.S.m.A.S.V.V.A.J.m.Z.Z.A.A.V.P.w.- o n = + , 3 # + + _ _ _ _ ",
"_ _ _ _ _ + o     + n c $ 1 E h.A.f.f.v.l.b.g.f.n.m.v.f.g.b.l.v.G.8.-       @ l 9 0 ; # _ _ _ _ ",
"_ _ _ _ _ + o     o X + = c W h.F.f.m.m.m.m.g.n.m.m.g.g.n.m.b.n.D.9.r       o +   9 c % _ _ _ _ ",
"_ _ _ _ _ o + M ~ =   - l @ G u.A.b.m.b.v.g.n.m.n.n.b.b.m.b.v.g.L.0.=   v ! ;   3 f $ + _ _ _ _ ",
"_ _ _ _ _ # f ..{ = + , 9   Z y.Z.l.m.v.g.g.m.n.f.f.v.l.l.n.d.v.L.5., 1 { [ 3 X l ; + + _ _ _ _ ",
"_ _ _ _ _ - K M @ + = - @   F y.C.g.m.g.g.m.n.f.f.f.f.n.n.g.g.c.H.=.c I 0 $ @ $ ; # + + _ _ _ _ ",
"_ _ _ _ _ @ @ +   + I c     A p.C.f.f.f.g.N.n.f.f.f.f.f.f.f.n.c.D.8.; + o   @ B c @   + _ _ _ _ ",
"_ _ _ _ _ +       + $ #     F e.S.f.g.f.g.b.d.f.g.g.g.g.f.f.g.l.D.8.-       + # @ + o + _ _ _ _ ",
"_ _ _ _ _ + @ = $ o         R k.J.n.m.g.f.g.g.f.m.z.n.n.n.g.f.g.G.8.-   - $ X     o + + _ _ _ _ ",
"_ _ _ _ _ + = v , X # #     Y k.K.m.m.m.n.f.f.f.m.c.m.m.m.n.g.f.C.8.- o F 1 o # # + X + _ _ _ _ ",
"_ _ _ _ _ + # - # o K n o + H j.J.n.f.n.m.n.f.f.g.m.m.g.g.m.b.g.C.8.- o - @ @ M c # o + _ _ _ _ ",
"_ _ _ _ _ + +     o = - ; F W h.D.f.g.v.b.m.g.f.n.m.g.f.n.b.b.b.G.8.-       + * @ M n & _ _ _ _ ",
"_ _ _ _ _ +   + # + + # - ; E h.F.g.m.b.m.n.g.n.m.m.n.n.n.m.b.n.H.q.-   + # @ + @ 9 1 # _ _ _ _ ",
"_ _ _ _ _ + $ K ^ *   = ,   A u.A.l.N.m.n.g.n.m.n.g.m.m.m.m.n.g.L.0.3 @ Z ! -   ; ; @ + _ _ _ _ ",
"_ _ _ _ _ & M $.{ = + 9 f   Z y.S.b.m.v.g.n.l.d.f.f.d.l.l.v.g.b.L.7.4 c [ [ 3 O v 9 @ + _ _ _ _ ",
"_ _ _ _ _ = c ;   + n 9     G p.C.g.n.f.g.N.n.f.f.f.f.n.g.f.g.M.H.=.0 c $ X @ 0 9 @   + _ _ _ _ ",
"_ _ _ _ _ @ + X   o l ;     A p.C.f.f.a.n.M.n.f.f.f.f.f.f.f.n.c.D.-.3 @     + 9 ; +   + _ _ _ _ ",
"_ _ _ _ _ +   X + + @ @ o X T j.D.g.n.f.g.n.g.f.n.n.g.g.g.f.g.m.D.8.-   X + + @ @ + + + _ _ _ _ ",
"_ _ _ _ _ + # - $ o   o     R k.K.n.m.n.f.f.f.f.m.x.m.m.m.n.f.f.C.8.- o - $ o   o o o + _ _ _ _ ",
"_ _ _ _ _ + - Z f o = &     R j.J.b.n.m.n.f.f.f.n.N.m.n.m.m.n.f.C.8.- + I 9 + * = +   + _ _ _ _ ",
"_ _ _ _ _ + + @ @ + M n # - E h.A.g.f.v.b.n.g.f.g.b.v.f.g.b.b.n.C.-.-   # + @ c 0 , & # _ _ _ _ ",
"_ _ _ _ _ +       o $ $ & c W h.A.f.n.v.b.m.g.g.m.m.g.f.n.b.l.n.G.9.-       + & @ 0 f % _ _ _ _ ",
"_ _ _ _ _ + + & ; @   @ 3 - E r.F.n.m.m.b.n.g.m.m.n.n.n.m.m.b.n.F.q.-   & ; @   @ 9 ; @ _ _ _ _ ",
"_ _ _ _ _ + = ..6.; + f n   A u.A.l.m.b.n.g.m.n.f.f.m.b.m.b.d.g.L.0.- @ [ *.0   F f + o _ _ _ _ ",
"_ _ _ _ _ - I ! ; # @ = #   Z y.B.v.b.g.g.n.v.g.f.f.g.l.m.g.d.l.H.*.e ! G 9 # + - $ + + _ _ _ _ ",
"_ _ _ _ _ & ; & X + Z f X   L f.I.B.D.C.D.K.A.C.C.C.C.D.G.C.Z.K.U.w.9 ; # X @ l f @   + _ _ _ _ ",
"_ _ _ _ _ +       + c 3   X M t.f.t.p.p.d.k.d.s.p.s.y.y.p.s.i.k.n.=.-       + 9 ; +   + _ _ _ _ ",
"_ _ _ _ _ + + + + +     o o - A ' I K K U R E K K I ! I K K U W ^ v # o + + X     + + + _ _ _ _ ",
"_ _ _ _ _ + = v 9 X   o + + X   = F @       X X   @ 9 9 @     X X X o @ F ,   X X o + + _ _ _ _ ",
"_ _ _ _ _ + # , - o n 0 + X o   # 9 o # 9 -       + - - + $ M +     o + l $ + f 0 @   + _ _ _ _ ",
"_ _ _ _ _ + + + X o f 9 = 9 + o + +   & , 3 9 & + + + + X = n $ 9 = X + +   + 9 - 9 ; # _ _ _ _ ",
"_ _ _ _ _ +   X + + + # 0 F +   X X + + + # I 3 +     + + + @ ; F ;   X X O + + + n n % _ _ _ _ ",
"_ _ _ _ _ + + 1 n # X $ 3 + +   # l f + + - & +   + $ M ; + @ , # o X o , c $ X = - @ + _ _ _ _ ",
"_ _ _ _ _ # c $.o.-   3 C X   # I $.{ + + m ; o   ; { *.n + + K $   + l o.o.1   f 0 @ + _ _ _ _ ",
"_ _ _ _ _ = M G ; @ ; 9 & X   , K f - $ , f @   + 9 U 0 # $ f - +   # K n 3 $ - j & + + _ _ _ _ ",
"_ _ _ _ _ # = +   o M 3   + o & $     = c =     @ & #     ; M X   o @ ; +   + c 3 +   + _ _ _ _ ",
"_ _ _ _ _ @ o + + + 3 = + + + + + + + % - & + + + + + + + & , @ + + + + + + @ - = @ o # _ _ _ _ "
};
