/* XPM */
static char *e8fb6ace425d4318e1ebdf582dc47693QifxFx3DazBTZzOV[] = {
/* columns rows colors chars-per-pixel */
"48 48 241 2 ",
"   c #000000",
".  c #0D0201",
"X  c #060E00",
"o  c #140101",
"O  c #1C0000",
"+  c #1A0900",
"@  c #1A1403",
"#  c #000014",
"$  c #151112",
"%  c #230000",
"&  c #2C0100",
"*  c #240B01",
"=  c #280908",
"-  c #340100",
";  c #390901",
":  c #291404",
">  c #371603",
",  c #3C1A00",
"<  c #261C17",
"1  c #381A16",
"2  c #1D2F00",
"3  c #3B2603",
"4  c #312F0B",
"5  c #2B2616",
"6  c #372518",
"7  c #000924",
"8  c #161730",
"9  c #221A25",
"0  c #351A29",
"q  c #1A223C",
"w  c #322926",
"e  c #282736",
"r  c #363539",
"t  c #431D00",
"y  c #441804",
"u  c #441A18",
"i  c #4C2501",
"p  c #482906",
"a  c #552D07",
"s  c #4C3304",
"d  c #573404",
"f  c #492716",
"g  c #522714",
"h  c #48341B",
"j  c #563617",
"k  c #633A0F",
"l  c #471B27",
"z  c #432B22",
"x  c #4C2A23",
"c  c #542B28",
"v  c #483327",
"b  c #5A3A28",
"n  c #4D2D31",
"m  c #473A37",
"M  c #5D3A39",
"N  c #623A2A",
"B  c #693B34",
"V  c #3A4D39",
"C  c #534B1D",
"Z  c #694801",
"A  c #734E01",
"S  c #724F09",
"D  c #6E5000",
"F  c #7A5707",
"G  c #6A4C17",
"H  c #77551A",
"J  c #7C6C16",
"K  c #4F4C2B",
"L  c #49453A",
"P  c #574537",
"I  c #525738",
"U  c #664527",
"Y  c #744627",
"T  c #73452B",
"R  c #754D2D",
"E  c #6A532E",
"W  c #78592A",
"Q  c #674736",
"!  c #6B4334",
"~  c #6B4C3A",
"^  c #754A38",
"/  c #765638",
"(  c #71682A",
")  c #796638",
"_  c #09174A",
"`  c #0E2255",
"'  c #3C3347",
"]  c #31384F",
"[  c #2B3659",
"{  c #303553",
"}  c #0F2D6D",
"|  c #263567",
" . c #403C43",
".. c #5E3C42",
"X. c #643A44",
"o. c #37474D",
"O. c #264666",
"+. c #3B466B",
"@. c #3A4877",
"#. c #564B45",
"$. c #524D50",
"%. c #6A4845",
"&. c #714D44",
"*. c #6B5647",
"=. c #775848",
"-. c #675E55",
";. c #7B5A56",
":. c #6A614F",
">. c #7C6547",
",. c #6A6359",
"<. c #786757",
"1. c #4C5371",
"2. c #546372",
"3. c #716F6C",
"4. c #835F00",
"5. c #855D17",
"6. c #896500",
"7. c #8D7004",
"8. c #997703",
"9. c #926F14",
"0. c #A47F0F",
"q. c #825839",
"w. c #886D2A",
"e. c #9B7C27",
"r. c #876736",
"t. c #957237",
"y. c #865B45",
"u. c #825754",
"i. c #88664A",
"p. c #966C4E",
"a. c #8A7446",
"s. c #9A7648",
"d. c #8B6B52",
"f. c #886856",
"g. c #976B5A",
"h. c #8B7357",
"j. c #987759",
"k. c #A27D46",
"l. c #A2785A",
"z. c #877867",
"x. c #9A7965",
"c. c #A27B69",
"v. c #A7831A",
"b. c #AF9012",
"n. c #958A32",
"m. c #AB8626",
"M. c #A38236",
"N. c #B79733",
"B. c #B7A025",
"V. c #CAA90D",
"C. c #C6A415",
"Z. c #C29E2C",
"A. c #D6B526",
"S. c #CFAA38",
"D. c #DBBA34",
"F. c #E4BE22",
"G. c #E5BE37",
"H. c #DDC114",
"J. c #F0CB14",
"K. c #F2D02B",
"L. c #E7C837",
"P. c #F5CB34",
"I. c #EBD538",
"U. c #FCD639",
"Y. c #988450",
"T. c #B99A45",
"R. c #AF9357",
"E. c #B2AB4E",
"W. c #9C836C",
"Q. c #958678",
"!. c #A6866A",
"~. c #B68C68",
"^. c #AA9367",
"/. c #BA966A",
"(. c #A78976",
"). c #B29174",
"_. c #B69879",
"`. c #B5A26F",
"'. c #C7AB50",
"]. c #C19D75",
"[. c #C9A477",
"{. c #D4AD71",
"}. c #D8A87B",
"|. c #E8B479",
" X c #D5C348",
".X c #E4C94B",
"XX c #F0D74A",
"oX c #ECCD73",
"OX c #29498B",
"+X c #384A82",
"@X c #335293",
"#X c #3D5BA6",
"$X c #3F64A4",
"%X c #424F81",
"&X c #425594",
"*X c #4C659A",
"=X c #64738B",
"-X c #415BAB",
";X c #4968AA",
":X c #556BA8",
">X c #516DB8",
",X c #5072B5",
"<X c #5472BA",
"1X c #667BB1",
"2X c #5875C1",
"3X c #817F88",
"4X c #708195",
"5X c #6E82AD",
"6X c #6782C2",
"7X c #7188D4",
"8X c #8C8F96",
"9X c #A49585",
"0X c #BB9B85",
"qX c #B3A696",
"wX c #8B96A7",
"eX c #AFAEAB",
"rX c #CFAF8E",
"tX c #D6B797",
"yX c #EDB68E",
"uX c #EBBA97",
"iX c #D8BDA2",
"pX c #B9C3BC",
"aX c #DFC59A",
"sX c #E9C78B",
"dX c #EAC49A",
"fX c #F7C598",
"gX c #D7C7AD",
"hX c #EBCBA9",
"jX c #F8C7A6",
"kX c #EAD5A6",
"lX c #FBCFB2",
"zX c #FED8B7",
"xX c #F6E8B5",
"cX c #FFE2BC",
"vX c #DBD1C1",
"bX c #FEDAC6",
"nX c #DFE0DB",
"mX c #E5E4C8",
"MX c #FDE7C6",
"NX c #FFFBD7",
"BX c #FEFDEE",
/* pixels */
"' ' ' ' ' ' ' ' ' ' ' ' ' ' ' '     % , - f x > 6 6 6 * o       ' ' ' ' ' ' ' ' ' ' ' ' ' ' ' ' ",
"' ' ' ' ' ' ' ' ' ' ' ' ' '     % % 3 ~ ~ &.~ > P *.=.*.v : O %   ' ' ' ' ' ' ' ' ' ' ' ' ' ' ' ",
"' ' ' ' ' ' ' ' ' ' ' ' '   3 P *.>.f.j.!.d.U p ^ g.x.f.f.=.P z P   ' ' ' ' ' ' ' ' ' ' ' ' ' ' ",
"' ' ' ' ' ' ' ' ' ' ' '   :.: W.W.W.x.!.l.y.T N / y.d.i.(.x.f.=.> <.  ' ' ' ' ' ' ' ' ' ' ' ' ' ",
"' ' ' ' ' ' ' ' ' ' '   P 3 z.tX(.j.i.j.R Y q.q.^ T R y.g.c.!.(.<.- *.  ' ' ' ' ' ' ' ' ' ' ' ' ",
"' ' ' ' ' ' ' ' ' ' '   h x.gXR d.d.q.R R Y T y.^ T Y y.! f.(.d.c.h.Q o   ' ' ' ' ' ' ' ' ' ' ' ",
"' ' ' ' ' ' ' ' ' ' '   h.[.}.rXi.U s U d.c.x.u.g.c.x.^ y N g.tXl.y.b ,   ' ' ' ' ' ' ' ' ' ' ' ",
"' ' ' ' ' ' ' ' ' '     j.[.[.!.R s j >.!.f.! N ^ f.c.f.N f ^ ~.l.p.=.b     ' ' ' ' ' ' ' ' ' ' ",
"' ' ' ' ' ' ' ' ' '   *.j.~.~.R a j >.!.x.Q ; g g ! h.(.f.b i q.s.!.x.&.%   ' ' ' ' ' ' ' ' ' ' ",
"' ' ' ' ' ' ' ' '   * P g.c.g.=.g d.aXrX=.x f Y - j a.rX).^ t k s.~.j.Q %   ' ' ' ' ' ' ' ' ' ' ",
"' ' ' ' ' ' ' ' '   @ v %.u.u.u M =.j.^.f.N b ~.d d r._.W.f.Q a / y.~ x *   ' ' ' ' ' ' ' ' ' ' ",
"' ' ' ' ' ' ' ' '   @ 6 v %.;.u %.i.a.Y.&.x N [.G d U f.<.;.&.f ! =.~ f +   ' ' ' ' ' ' ' ' ' ' ",
"' ' ' ' ' ' ' ' '   X 5 1 ..;.l M ~ / ) j c y.}.t.N f M M %.M u %.&.P z +   ' ' ' ' ' ' ' ' ' ' ",
"' ' ' ' ' ' ' ' ' '   w m M X.n ; > f p , y.rXyXrXy.u n n 0 1 1 ;.M 1 v @   ' ' ' ' ' ' ' ' ' ' ",
"' ' ' ' ' ' ' ' ' '   L * 1 M u & O * * g s.uXfXuXg.x = = O = 1 x 1 : 5 .   ' ' ' ' ' ' ' ' ' ' ",
"' ' ' ' ' ' ' ' ' '   5 <.=., =.&.z O O / ].fXyXuX).&.O o z *.;.- =.<.:   ' ' ' ' ' ' ' ' ' ' ' ",
"' ' ' ' ' ' ' ' ' '     9X(.i 0XrX;.1 : l.yXyXyXyXtXj.> : ;.rXqXf (.9X.   ' ' ' ' ' ' ' ' ' ' ' ",
"' ' ' ' ' ' ' ' ' '     ,.h.=.iXMX_.~ U [.dX{.|.|.fX[.U U ).MXtX/ h.<.    ' ' ' ' ' ' ' ' ' ' ' ",
"' ' ' ' ' ' ' ' ' ' '   P % R _.hX!.i i /.uXfXyX{.}./.s d ^.kX^.W O P   ' ' ' ' ' ' ' ' ' ' ' ' ",
"' ' ' ' ' ' ' ' ' ' ' '   *.f /.dXtX0X_.dXjXfXjXjXjXdX/._.tXaX^.p *.  ' ' ' ' ' ' ' ' ' ' ' ' ' ",
"' ' ' ' ' ' ' ' ' ' ' '   (.- y.].hXMXMXcXzXjXlXbXzXzXcXbXhX_.=.&   ' ' ' ' ' ' ' ' ' ' ' ' ' ' ",
"' ' ' ' ' ' ' ' ' ' ' '   ).i O q./.rXMXzXzXzXbXbXlXjXcXtX0Xf.O a   ' ' ' ' ' ' ' ' ' ' ' ' ' ' ",
"' ' ' ' ' ' ' ' ' ' '   j.d Z A t & x _.dXdXuXjXuXdXdX].x = 1 R k d   ' ' ' ' ' ' ' ' ' ' ' ' ' ",
"' ' ' ' ' ' ' ' ' ' '   a.Z m.0.Z , & W U ! ! ^ B ! ! W , & f r.t.H d   ' ' ' ' ' ' ' ' ' ' ' ' ",
"' ' ' ' ' ' ' ' ' '     7.v.D.C.v.D p H j t - ; ; t s D a a k 5.T.M.S -   ' ' ' ' ' ' ' ' ' ' ' ",
"' ' ' ' ' ' ' ' ' '   - M.L.K.H.A.9.D /.T.v.6.6.4.v.b.B.F H 5.F v.S.e.i   ' ' ' ' ' ' ' ' ' ' ' ",
"' ' ' ' ' ' ' ' ' '   - 7.V.J.U.V.8.w.sXoX.XD.L.A.L.I..XZ w.t.t m.S.v.Z s   ' ' ' ' ' ' ' ' ' ' ",
"' ' ' ' ' ' ' ' '     d b.J.J.U.C.8.9.sX.XL.U.U.K.K.XX.XJ Y.s.i 5.N.'.w.*   ' ' ' ' ' ' ' ' ' ' ",
"' ' ' ' ' ' ' ' '   `.6.A.K.J.P.b.6.9.{. XL.P.P.P.L. X XJ Y.a.t a W M.w..   ' ' ' ' ' ' ' ' ' ' ",
"' ' ' ' ' ' ' ' '   & N.F.J.K.G.7.F e.Y.'. XD.G.XX.XE.n.( Y.*.% O a F (     ' ' ' ' ' ' ' ' ' ' ",
"' ' ' ' ' ' ' ' '   i m.G.U.XXZ.A R.xXC G n.E.N.N.E.R.4 mXqXL o O ~ [.kX:   ' ' ' ' ' ' ' ' ' ' ",
"' ' ' ' ' ' ' ' '   y 4.B.G..XT.d h.gXL K K C C ( ( I 2 pX8X .9   <.> b     ' ' ' ' ' ' ' ' ' ' ",
"' ' ' ' ' ' ' ' '   a.a 9.v.m.M.3 #.3Xo.o.V V h I L V o.wX=X{ 8           ' ' ' ' ' ' ' ' ' ' ' ",
"' ' ' ' ' ' ' ' ' '   i Z A A r.3 9 [ @.O.%X4X=X=X=X5X1X*X@.| _   ' ' ' ' ' ' ' ' ' ' ' ' ' ' ' ",
"' ' ' ' ' ' ' ' ' '   R k.|.xXMX#.e 1.6X$X;X1X*X*X*X;X;X#X1X:X@.  ' ' ' ' ' ' ' ' ' ' ' ' ' ' ' ",
"' ' ' ' ' ' ' ' ' '   O d.rXkXgX#.8 %X<X6X$XOX@X,X2X<X#X2X;X+X`   ' ' ' ' ' ' ' ' ' ' ' ' ' ' ' ",
"' ' ' ' ' ' ' ' ' '     P *.<.<.r ] %X&X:XOX} OX<X2X>X<X2X&X| _   ' ' ' ' ' ' ' ' ' ' ' ' ' ' ' ",
"' ' ' ' ' ' ' ' ' ' ' '   = 5   e 1.1.| @.} ` OX;X;X-X7X:X+X| '   ' ' ' ' ' ' ' ' ' ' ' ' ' ' ' ",
"' ' ' ' ' ' ' ' ' ' ' ' '       $ r 1.1.+.[ ` ` } &X1X5X@.+.[ q   ' ' ' ' ' ' ' ' ' ' ' ' ' ' ' ",
"' ' ' ' ' ' ' ' ' ' ' ' ' '     r  .9 8 e 8 7 _ _ | +.[ ] e 7 #   ' ' ' ' ' ' ' ' ' ' ' ' ' ' ' ",
"' ' ' ' ' ' ' ' ' ' ' ' ' '     L ,.#.m $.w # ] 2.4XwX8X3.$. .r   ' ' ' ' ' ' ' ' ' ' ' ' ' ' ' ",
"' ' ' ' ' ' ' ' ' ' ' ' ' '     r <.9Xf.Q.m $ 2.eXnXBXBXvXqXz.,.  ' ' ' ' ' ' ' ' ' ' ' ' ' ' ' ",
"' ' ' ' ' ' ' ' ' ' ' ' ' '     . w *.*.Q 5 < 3.eXmXNXNXNXiXz.-.  ' ' ' ' ' ' ' ' ' ' ' ' ' ' ' ",
"' ' ' ' ' ' ' ' ' ' ' ' ' '     o < z P P 5 . < :.) ) w.H / Q <   ' ' ' ' ' ' ' ' ' ' ' ' ' ' ' ",
"' ' ' ' ' ' ' ' ' ' ' ' ' '   . . + * < 5 $     K E Z Z H W b .   ' ' ' ' ' ' ' ' ' ' ' ' ' ' ' ",
"' ' ' ' ' ' ' ' ' ' ' ' ' ' '                   K a.R.T.].s.h .   ' ' ' ' ' ' ' ' ' ' ' ' ' ' ' ",
"' ' ' ' ' ' ' ' ' ' ' ' ' ' ' ' ' ' ' ' ' ' X   3 ) '.oX|.t.> o   ' ' ' ' ' ' ' ' ' ' ' ' ' ' ' ",
"' ' ' ' ' ' ' ' ' ' ' ' ' ' ' ' ' ' ' ' ' ' '   o : > > u % v   ' ' ' ' ' ' ' ' ' ' ' ' ' ' ' ' "
};
