/* XPM */
static char *_c8b45ccd88f4737849c46c67f798c6au6bVoYunrqZYExlJ[] = {
/* columns rows colors chars-per-pixel */
"48 48 239 2 ",
"   c #000000",
".  c #0D0202",
"X  c #070E00",
"o  c #140101",
"O  c #1C0000",
"+  c #1C0900",
"@  c #1A1403",
"#  c #000014",
"$  c #151112",
"%  c #220000",
"&  c #2C0100",
"*  c #240B01",
"=  c #280908",
"-  c #340100",
";  c #390901",
":  c #2A1404",
">  c #371704",
",  c #3C1A00",
"<  c #261C17",
"1  c #381A16",
"2  c #1D2F00",
"3  c #3B2603",
"4  c #32360E",
"5  c #2B2616",
"6  c #372518",
"7  c #000924",
"8  c #161730",
"9  c #221A25",
"0  c #351A29",
"q  c #1A223C",
"w  c #322A28",
"e  c #282736",
"r  c #363539",
"t  c #441600",
"y  c #431D00",
"u  c #441A18",
"i  c #4C2501",
"p  c #482906",
"a  c #552D07",
"s  c #4C3304",
"d  c #573404",
"f  c #492716",
"g  c #522714",
"h  c #48341B",
"j  c #563617",
"k  c #633A0F",
"l  c #471B27",
"z  c #432B22",
"x  c #4C2A23",
"c  c #542B28",
"v  c #483327",
"b  c #5A3A28",
"n  c #4D2D31",
"m  c #473A37",
"M  c #5D3A39",
"N  c #623A2A",
"B  c #693B34",
"V  c #3A4D39",
"C  c #534B1D",
"Z  c #694801",
"A  c #734E01",
"S  c #724F09",
"D  c #6E5000",
"F  c #7A5707",
"G  c #6A4C17",
"H  c #77551A",
"J  c #7C6C16",
"K  c #4F4C2B",
"L  c #49453A",
"P  c #574537",
"I  c #525738",
"U  c #664527",
"Y  c #744627",
"T  c #73452B",
"R  c #754D2D",
"E  c #6A532E",
"W  c #78592A",
"Q  c #674736",
"!  c #6B4334",
"~  c #6B4C3A",
"^  c #754A38",
"/  c #765638",
"(  c #71682A",
")  c #796638",
"_  c #051B47",
"`  c #09124C",
"'  c #0E2255",
"]  c #3C3347",
"[  c #31384F",
"{  c #2B3659",
"}  c #303553",
"|  c #0F2D6D",
" . c #263567",
".. c #403C43",
"X. c #5E3C42",
"o. c #643A44",
"O. c #37474D",
"+. c #264666",
"@. c #3B466B",
"#. c #3A4877",
"$. c #564B45",
"%. c #524D50",
"&. c #6A4845",
"*. c #714D44",
"=. c #6B5647",
"-. c #775848",
";. c #675E55",
":. c #7B5A56",
">. c #6A614F",
",. c #7C6547",
"<. c #6A6359",
"1. c #786858",
"2. c #4C5371",
"3. c #546372",
"4. c #716F6C",
"5. c #835F00",
"6. c #855D17",
"7. c #896500",
"8. c #8D7004",
"9. c #997703",
"0. c #926F14",
"q. c #825839",
"w. c #886D2A",
"e. c #9B7C27",
"r. c #876736",
"t. c #957237",
"y. c #865B45",
"u. c #825754",
"i. c #88664A",
"p. c #966C4E",
"a. c #8A7446",
"s. c #9A7648",
"d. c #8B6B52",
"f. c #886856",
"g. c #976B5A",
"h. c #8B7357",
"j. c #987658",
"k. c #A27D46",
"l. c #A2785A",
"z. c #877867",
"x. c #9A7965",
"c. c #A27B69",
"v. c #A7831A",
"b. c #AF9012",
"n. c #958A32",
"m. c #AB8626",
"M. c #A38236",
"N. c #B79733",
"B. c #B7A025",
"V. c #CAA90D",
"C. c #C6A415",
"Z. c #C29E2C",
"A. c #D6B526",
"S. c #CFAA38",
"D. c #DBBA34",
"F. c #E4BE22",
"G. c #E5BE37",
"H. c #F0CB14",
"J. c #E6CE2C",
"K. c #F2D02B",
"L. c #E7C837",
"P. c #F5CB34",
"I. c #FCD639",
"U. c #988450",
"Y. c #B99A45",
"T. c #AF9357",
"R. c #B2AB4E",
"E. c #9C836C",
"W. c #958678",
"Q. c #A6866A",
"!. c #B68C68",
"~. c #AA9367",
"^. c #BA966A",
"/. c #A78975",
"(. c #B58F76",
"). c #B69879",
"_. c #B9A079",
"`. c #C7AB50",
"'. c #C19D75",
"]. c #C9A477",
"[. c #D4AD71",
"{. c #D8A87B",
"}. c #E8B479",
"|. c #D5C348",
" X c #E4C94B",
".X c #F0D74A",
"XX c #ECCD73",
"oX c #29498B",
"OX c #384A82",
"+X c #335293",
"@X c #3D5BA6",
"#X c #3F64A4",
"$X c #424F81",
"%X c #425594",
"&X c #4C659A",
"*X c #64738B",
"=X c #415BAB",
"-X c #4968AA",
";X c #556BA8",
":X c #516DB8",
">X c #5072B5",
",X c #5472BA",
"<X c #667BB1",
"1X c #5875C1",
"2X c #708195",
"3X c #6E82AD",
"4X c #6782C2",
"5X c #7188D4",
"6X c #8C8F96",
"7X c #A49585",
"8X c #BB9B85",
"9X c #B3A696",
"0X c #8B96A7",
"qX c #AFAEAB",
"wX c #CFAF8E",
"eX c #D6B797",
"rX c #EDB68E",
"tX c #EBBA97",
"yX c #D8BDA2",
"uX c #B9C3BC",
"iX c #DFC59A",
"pX c #E9C78B",
"aX c #EAC49A",
"sX c #F7C598",
"dX c #D7C7AD",
"fX c #EBCBA9",
"gX c #F8C7A6",
"hX c #EAD5A6",
"jX c #FBCFB2",
"kX c #FED8B7",
"lX c #F6E8B5",
"zX c #FFE2BC",
"xX c #DBD1C1",
"cX c #FEDAC6",
"vX c #DFE0DB",
"bX c #E5E4C8",
"nX c #FDE7C6",
"mX c #FFFBD7",
"MX c #FEFDEE",
/* pixels */
"] ] ] ] ] ] ] ] ] ] ] ] ] ] ] ] ] ]                           ] ] ] ] ] ] ] ] ] ] ] ] ] ] ] ] ] ",
"] ] ] ] ] ] ] ] ] ] ] ] ] ] ] ]       % , - f v > 6 6 6 * o       ] ] ] ] ] ] ] ] ] ] ] ] ] ] ] ",
"] ] ] ] ] ] ] ] ] ] ] ] ] ] ]   % % % 3 ~ ~ *.~ > P =.=.=.v : O %     ] ] ] ] ] ] ] ] ] ] ] ] ] ",
"] ] ] ] ] ] ] ] ] ] ] ] ] ]   3 P =.,.f.j./.d.N p ^ f.x.f.f.-.P z P   ] ] ] ] ] ] ] ] ] ] ] ] ] ",
"] ] ] ] ] ] ] ] ] ] ] ] ]   >.: E.E.E.x.Q.l.y.T N / y.d.i./.x.f.-.>     ] ] ] ] ] ] ] ] ] ] ] ] ",
"] ] ] ] ] ] ] ] ] ] ] ]   P 3 z.eX/.j.i.j.R Y q.q.^ T R y.g.c.Q./.1.- =.  ] ] ] ] ] ] ] ] ] ] ] ",
"] ] ] ] ] ] ] ] ] ] ]   o h x.dXR d.d.q.R R Y T y.^ T Y y.B f./.d.c.h.Q o   ] ] ] ] ] ] ] ] ] ] ",
"] ] ] ] ] ] ] ] ] ] ]   : h.].{.wXi.U s U d.c.x.u.g.c.x.^ t N g.eXl.y.b ,   ] ] ] ] ] ] ] ] ] ] ",
"] ] ] ] ] ] ] ] ] ]     v j.].].Q.R s j ,.Q.f.! N ^ f.c.f.N g R !.l.p.-.b   ] ] ] ] ] ] ] ] ] ] ",
"] ] ] ] ] ] ] ] ] ]     =.j.!.!.R a U ,.Q.x.Q ; g g ! h./.f.b i q.s.c.x.*.%   ] ] ] ] ] ] ] ] ] ",
"] ] ] ] ] ] ] ] ] ]   * P h.c.g.-.g d.iXwX-.x f Y - j a.wX(.^ y k s.!.j.Q %   ] ] ] ] ] ] ] ] ] ",
"] ] ] ] ] ] ] ] ] ]   @ v &.u.u.u M -.j.~.f.M b !.d d r.).Q.f.Q g / y.~ x *   ] ] ] ] ] ] ] ] ] ",
"] ] ] ] ] ] ] ] ] ]   @ 6 v &.:.u Q i.a.U.*.x N ].G d U f.1.:.*.f ! -.~ h +   ] ] ] ] ] ] ] ] ] ",
"] ] ] ] ] ] ] ] ] ]   X 5 1 X.:.l M ~ / ) j c y.{.t.N g Q M &.M u &.*.Q z +   ] ] ] ] ] ] ] ] ] ",
"] ] ] ] ] ] ] ] ] ]     6 m M o.n ; > p p , y.wXrX{.y.u n n 0 1 1 :.M 1 v @   ] ] ] ] ] ] ] ] ] ",
"] ] ] ] ] ] ] ] ] ]     L * 1 M u & O * * g s.tXsXtXg.x = = O = 1 x 1 : 5 .   ] ] ] ] ] ] ] ] ] ",
"] ] ] ] ] ] ] ] ] ] ]   5 1.-., -.*.z O O / ^.sXrXtX(.*.O o z =.:.- :.1.:   ] ] ] ] ] ] ] ] ] ] ",
"] ] ] ] ] ] ] ] ] ] ]     7X/.i 8XwX:.1 : l.rXrXrXtXwXx.> : :.wX9Xf /.7X.   ] ] ] ] ] ] ] ] ] ] ",
"] ] ] ] ] ] ] ] ] ] ]     <.h.-.yXcX).~ U ].pX[.}.}.sX].U U ).nXeX/ h.1.    ] ] ] ] ] ] ] ] ] ] ",
"] ] ] ] ] ] ] ] ] ] ] ]   P % R (.fXQ.i i ^.pXsXrX[.{.^.s d ~.hX~.W O P   ] ] ] ] ] ] ] ] ] ] ] ",
"] ] ] ] ] ] ] ] ] ] ] ] ]   =.f ^.aXeX8X).aXgXsXgXgXgXaX^._.eXiX~.p =.  ] ] ] ] ] ] ] ] ] ] ] ] ",
"] ] ] ] ] ] ] ] ] ] ] ] ] ]   - y.'.fXnXnXzXkXjXjXcXkXkXzXcXfX).-.&   ] ] ] ] ] ] ] ] ] ] ] ] ] ",
"] ] ] ] ] ] ] ] ] ] ] ] ] ]   i O q.^.wXnXkXkXkXcXcXjXjXzXeX8Xf.O a     ] ] ] ] ] ] ] ] ] ] ] ] ",
"] ] ] ] ] ] ] ] ] ] ] ] ]   d Z A y & x ).aXaXtXgXtXaXaX'.x = 1 R k d   ] ] ] ] ] ] ] ] ] ] ] ] ",
"] ] ] ] ] ] ] ] ] ] ] ]   a.Z m.v.Z , & W U ! ! ^ B B ! W , & f r.t.H d   ] ] ] ] ] ] ] ] ] ] ] ",
"] ] ] ] ] ] ] ] ] ] ] ]   8.v.D.C.v.D p G j y - ; ; y s D a a k 6.Y.M.S -   ] ] ] ] ] ] ] ] ] ] ",
"] ] ] ] ] ] ] ] ] ] ]   - M.L.K.F.A.0.D ^.Y.v.7.7.5.9.b.B.F H 6.F v.S.e.i   ] ] ] ] ] ] ] ] ] ] ",
"] ] ] ] ] ] ] ] ] ] ]   - 8.V.H.I.V.9.w.pXXX XD.L.A.L.I. XZ w.t.y m.S.v.Z s   ] ] ] ] ] ] ] ] ] ",
"] ] ] ] ] ] ] ] ] ] ]   d b.H.H.I.C.9.0.pX XL.I.I.J.J..X XJ U.s.i 6.N.`.w.*   ] ] ] ] ] ] ] ] ] ",
"] ] ] ] ] ] ] ] ] ]     7.A.K.H.P.b.7.0.[.|.L.P.P.P.L.|.|.J U.a.y a W M.w..   ] ] ] ] ] ] ] ] ] ",
"] ] ] ] ] ] ] ] ] ]   & N.F.H.K.L.9.F e.U.`.|.D.G..X XR.n.( U.=.O O a F W     ] ] ] ] ] ] ] ] ] ",
"] ] ] ] ] ] ] ] ] ]   i m.G.I..XZ.A T.lXC G n.R.N.N.R.R.4 bX9XL o O ~ ].hX:   ] ] ] ] ] ] ] ] ] ",
"] ] ] ] ] ] ] ] ] ]   t F B.G. XY.d h.dXL K K C C ( ( I 2 uX6X..9   >.> b   ] ] ] ] ] ] ] ] ] ] ",
"] ] ] ] ] ] ] ] ] ]   a.a 0.v.m.M.3 $.6XO.O.V V h I L V O.0X*X} 8           ] ] ] ] ] ] ] ] ] ] ",
"] ] ] ] ] ] ] ] ] ] ]   i Z A A r.3 9 { #.+.3.2X*X*X*X3X<X&XOX .`   ] ] ] ] ] ] ] ] ] ] ] ] ] ] ",
"] ] ] ] ] ] ] ] ] ] ]   R k.}.lXnX$.e 2.4X%X-X>X&X&X&X-X-X@X<X;X#.  ] ] ] ] ] ] ] ] ] ] ] ] ] ] ",
"] ] ] ] ] ] ] ] ] ] ]   O d.wXhXdX$.8 $X,X1X#XoX+X>X1X,X@X1X-XOX'   ] ] ] ] ] ] ] ] ] ] ] ] ] ] ",
"] ] ] ] ] ] ] ] ] ] ]     P =.1.1.r [ $X%X;XoX| oX,X1X:X,X1X%X .`   ] ] ] ] ] ] ] ] ] ] ] ] ] ] ",
"] ] ] ] ] ] ] ] ] ] ] ] ]   = 5   e 2.2. .OX| ' oX-X-X=X5X;XOX ._   ] ] ] ] ] ] ] ] ] ] ] ] ] ] ",
"] ] ] ] ] ] ] ] ] ] ] ] ] ]       $ ] 2.2.@.{ ' ' | %X<X3X#.@.{ q   ] ] ] ] ] ] ] ] ] ] ] ] ] ] ",
"] ] ] ] ] ] ] ] ] ] ] ] ] ] ]     r m 9 8 e 8 7 _ _  .@.{ [ q 7 #   ] ] ] ] ] ] ] ] ] ] ] ] ] ] ",
"] ] ] ] ] ] ] ] ] ] ] ] ] ] ]     L <.$.m %.w # [ 3.2X0X6X4.%.] r   ] ] ] ] ] ] ] ] ] ] ] ] ] ] ",
"] ] ] ] ] ] ] ] ] ] ] ] ] ] ]     w 1.7Xz.W.m $ <.qXvXMXMXxX9Xz.<.  ] ] ] ] ] ] ] ] ] ] ] ] ] ] ",
"] ] ] ] ] ] ] ] ] ] ] ] ] ] ]     . 6 =.,.~ 5 < 4.qXbXmXmXmXyXz.;.  ] ] ] ] ] ] ] ] ] ] ] ] ] ] ",
"] ] ] ] ] ] ] ] ] ] ] ] ] ] ]     o < z P P 5 . < >.) ) w.H / Q <   ] ] ] ] ] ] ] ] ] ] ] ] ] ] ",
"] ] ] ] ] ] ] ] ] ] ] ] ] ] ] ] . . + * < 5 $     K E Z Z H W b .   ] ] ] ] ] ] ] ] ] ] ] ] ] ] ",
"] ] ] ] ] ] ] ] ] ] ] ] ] ] ] ] ]             ]   K a.T.Y.'.s.h   w ] ] ] ] ] ] ] ] ] ] ] ] ] ] ",
"] ] ] ] ] ] ] ] ] ] ] ] ] ] ] ] ] ] ] ] ] ] ] ]     ) `.XX}.t.>   ] ] ] ] ] ] ] ] ] ] ] ] ] ] ] "
};
