/* XPM */
static char *_2dcae7e4878446cd95eabdff1ab2e64KZZuWXdyKFNJbTOm[] = {
/* columns rows colors chars-per-pixel */
"48 48 193 2 ",
"   c #D2C9BA",
".  c #D2C9BB",
"X  c #D1C9BB",
"o  c #D1C9BA",
"O  c #D3CABB",
"+  c #D3CCBC",
"@  c #BCB3A8",
"#  c #908482",
"$  c #BCB2A8",
"%  c #D4CBBC",
"&  c #D3CABC",
"*  c #C6BCB1",
"=  c #ADA19A",
"-  c #A0938E",
";  c #A0938F",
":  c #C5BCB0",
">  c #D2CABB",
",  c #BCB2A7",
"<  c #BBB2A8",
"1  c #BBB2A7",
"2  c #BDB3A8",
"3  c #BDB4A9",
"4  c #A99F98",
"5  c #847878",
"6  c #BDB3A9",
"7  c #B3A8A0",
"8  c #A0948F",
"9  c #978A86",
"0  c #978A87",
"q  c #B2A8A0",
"w  c #928683",
"e  c #938784",
"r  c #857A7A",
"t  c #6C6166",
"y  c #928784",
"u  c #8F8380",
"i  c #897C7B",
"p  c #867978",
"a  c #897C7A",
"s  c #918683",
"d  c #928682",
"f  c #7B6E6F",
"g  c #7B6F6F",
"h  c #7B6E70",
"j  c #7C6F70",
"k  c #74686B",
"l  c #675C62",
"z  c #665C62",
"x  c #7B6F70",
"c  c #7C6F6F",
"v  c #7C7070",
"b  c #7A6E6F",
"n  c #766A6C",
"m  c #75696C",
"M  c #7A6D6F",
"N  c #7C7071",
"B  c #7C6F71",
"V  c #7D6F71",
"C  c #7D7070",
"Z  c #7D7071",
"A  c #7D7171",
"S  c #7E7171",
"D  c #7A6E70",
"F  c #685D63",
"G  c #7E7071",
"H  c #7E7172",
"J  c #60565E",
"K  c #7F7272",
"L  c #61575E",
"P  c #7D7172",
"I  c #7E7272",
"U  c #75696B",
"Y  c #6E6267",
"T  c #60565D",
"R  c #5F565D",
"E  c #6D6267",
"W  c #74696B",
"Q  c #74686A",
"!  c #62585F",
"~  c #62585E",
"^  c #61585F",
"/  c #5C535B",
"(  c #61585E",
")  c #595059",
"_  c #595159",
"`  c #585059",
"'  c #59505A",
"]  c #564C55",
"[  c #4F454D",
"{  c #554C55",
"}  c #58515A",
"|  c #59515A",
" . c #5A515A",
".. c #5A525A",
"X. c #5A525B",
"o. c #5B525B",
"O. c #4F454E",
"+. c #3A2C34",
"@. c #5A5159",
"#. c #4B414A",
"$. c #4C414A",
"%. c #4C424A",
"&. c #4D424B",
"*. c #42353D",
"=. c #2D1C24",
"-. c #2C1C24",
";. c #41353D",
":. c #4C4149",
">. c #302229",
",. c #312229",
"<. c #322229",
"1. c #32222A",
"2. c #2E1E25",
"3. c #27161D",
"4. c #231219",
"5. c #231218",
"6. c #231118",
"7. c #241218",
"8. c #241219",
"9. c #241118",
"0. c #231119",
"q. c #241119",
"w. c #24121A",
"e. c #25131A",
"r. c #26141C",
"t. c #291620",
"y. c #2B1722",
"u. c #2B1723",
"i. c #2B1823",
"p. c #26141B",
"a. c #241319",
"s. c #321D2D",
"d. c #382134",
"f. c #382133",
"g. c #372133",
"h. c #372033",
"j. c #372032",
"k. c #372132",
"l. c #372134",
"z. c #331D2D",
"x. c #29161F",
"c. c #28161F",
"v. c #28151F",
"b. c #321C2C",
"n. c #382033",
"m. c #2A1722",
"M. c #3E263C",
"N. c #3D253C",
"B. c #3E253C",
"V. c #3E253B",
"C. c #3D253B",
"Z. c #3E263D",
"A. c #2A1721",
"S. c #3C243A",
"D. c #392236",
"F. c #341E2F",
"G. c #2D1925",
"H. c #2E1A28",
"J. c #392135",
"K. c #3E263B",
"L. c #3D243B",
"P. c #392235",
"I. c #2F1A27",
"U. c #341E2E",
"Y. c #3C233A",
"T. c #3D253A",
"R. c #3C253B",
"E. c #2E1A27",
"W. c #3B2339",
"Q. c #382135",
"!. c #3C2439",
"~. c #3D263C",
"^. c #321D2C",
"/. c #362033",
"(. c #362133",
"). c #311D2C",
"_. c #26131B",
"`. c #29151F",
"'. c #2A1621",
"]. c #25131B",
"[. c #291721",
"{. c #331D2C",
"}. c #3C253A",
"|. c #3F263D",
" X c #301B29",
".X c #2B1822",
"XX c #3E253D",
"oX c #26131C",
"OX c #25121A",
"+X c #251219",
"@X c #251319",
"#X c #24131A",
"$X c white",
/* pixels */
"                    . X o o o         O + @ # # $ % O . & * = - - ; ; = : > .     o o o o       ",
", , , , , , , , , , $ < 1 1 1 , , , , 2 3 4 5 5 4 6 2 $ 2 7 8 9 0 0 0 8 q @ $ , , 1 1 1 1 , , , ",
"w w w w w w w w w w w w w w w w w w w w e r t t r y w w w u i p p p p a u w w w w w s s w w d d ",
"f f f f f f f f g g f f f f f f f f f h j k l z k x h f f f j j j j j c f f f f f f f f f f f f ",
"j j j j j j j j v v j j x x j j j j x x j b n m M j j j j j j N B V C j j j j j j j j j j j j j ",
"Z Z A A Z Z Z Z A A Z Z N N Z Z Z Z N N A A S S Z Z Z Z Z Z N N Z Z Z Z Z Z A A Z Z Z Z Z Z Z Z ",
"Z Z A A Z Z Z Z A A Z Z Z Z Z Z Z Z Z Z Z Z Z Z Z Z Z Z Z Z Z Z Z Z C C Z Z A A Z Z Z Z Z Z C C ",
"Z Z A A Z Z Z Z A A Z Z Z Z Z Z Z Z Z Z Z Z C C Z Z Z Z Z Z Z Z Z Z C C Z Z A A Z Z Z Z Z Z C C ",
"Z Z Z Z C C Z Z Z Z Z Z Z Z Z Z Z Z N N A A C C Z Z A A Z Z Z Z Z Z Z Z Z Z Z Z Z Z N N A A C C ",
"Z Z Z Z C C Z Z Z Z Z Z Z Z Z Z Z Z N N A A A Z Z Z A A Z Z Z Z Z Z Z Z Z Z Z Z Z Z N N A A C C ",
"Z Z Z Z Z Z Z Z A A Z Z N N Z Z Z Z Z Z A A S A Z N A A Z Z Z Z Z Z Z Z Z Z A A C C N N Z Z Z Z ",
"Z Z Z Z Z Z Z Z A A Z Z N N Z Z Z Z Z Z A x n n D Z A A Z Z Z Z Z Z Z Z Z Z A A C C N N Z Z Z Z ",
"Z Z Z Z Z Z Z Z A A Z Z Z Z Z Z Z Z Z Z S n F F n A A Z Z Z N N Z Z C C Z Z A A C C Z Z Z Z Z Z ",
"G G G G G G G S S S S G G G G G G G G H H k J J k H H G G Z Z Z Z G G Z Z A A S S G G S S S S G ",
"H H H H H H H H H H H H H H H H H H H H K k L L k K H H H H H H H S S S A P I I S S H H H S S S ",
"k k k k k k k k k k k k k k k k k k k U m Y T R E m U k k k k k k k k k k k W W k k k k W W k Q ",
"! ! ! ! ~ ~ ! ! ! ! ! ! ! ! ! ! ! ^ ^ ^ ! T / / R ^ ! ! ~ ( ^ ^ ^ ! ! ^ ^ ^ ^ ! ! ! ! ! ! ! ! ! ",
") ) ) ) ) ) ) ) _ _ ) ) ) ) ) ) ) ) ` ' ' ] [ [ { } | _ ) ) ` ` ) ) ) ) ` ` ) ) ) ) ) ) ) ) ) ) ",
"| | |  . . . . ..... . . . ..... . . .X.o.O.+.+.O.X.X. . . .| |  . . . .| | .... . . . ..... .@.",
"#.$.$.$.$.$.$.$.%.%.$.$.$.$.%.%.$.$.$.&.&.*.=.-.;.&.&.$.$.$.$.$.$.$.$.$.$.$.%.%.$.$.$.$.%.%.:.:.",
">.,.,.<.<.<.<.<.<.<.<.,.,.,.,.<.<.,.,.,.1.2.3.3.2.1.<.<.<.<.<.<.<.<.<.<.<.<.<.<.1.1.<.<.<.<.<.<.",
"4.5.6.6.6.6.6.6.6.6.6.6.6.6.6.6.6.6.6.6.6.7.8.8.7.9.9.7.9.6.6.6.6.6.6.6.6.6.6.6.0.q.8.7.9.6.6.6.",
"8.8.7.7.7.7.7.7.7.8.8.8.4.6.9.9.9.7.5.5.7.8.w.w.8.7.8.8.7.7.7.7.7.7.7.7.7.7.7.7.7.8.8.8.7.7.7.7.",
"e.r.t.y.y.y.y.y.y.y.y.y.y.y.y.y.y.y.y.y.y.y.u.u.y.t.r.r.t.y.y.y.y.y.y.y.y.y.y.y.i.t.p.p.t.y.y.y.",
"a.t.s.d.f.g.g.g.g.g.g.g.g.h.h.h.j.k.g.g.g.g.g.l.d.z.x.x.z.d.g.h.h.h.h.g.g.g.g.d.d.z.c.v.b.n.g.k.",
"4.m.g.M.M.N.N.N.N.B.V.C.N.N.N.B.V.V.B.B.B.B.B.M.Z.g.A.A.g.M.M.B.B.B.B.B.N.N.M.S.D.F.G.H.J.B.B.V.",
"8.y.g.M.K.C.C.N.N.C.C.C.C.C.C.C.C.C.C.C.C.C.C.M.M.g.A.A.k.M.M.N.L.L.C.C.C.N.M.P.I.G.U.P.Y.B.C.C.",
"8.y.h.B.C.T.R.R.L.L.C.C.C.C.C.C.C.C.C.C.C.C.C.C.B.h.A.A.j.C.C.C.L.L.C.C.R.R.N.d.E.E.P.B.N.L.C.C.",
"8.y.h.B.C.C.C.C.C.C.C.C.C.C.C.C.C.C.R.R.C.C.C.C.B.h.A.A.j.N.C.R.C.C.C.C.R.R.L.W.d.Q.!.N.C.C.T.T.",
"8.y.h.B.B.N.C.C.C.C.C.C.C.C.C.C.C.C.C.C.C.C.C.M.M.g.A.A.g.M.~.C.C.C.C.C.C.C.C.B.B.M.N.C.C.C.C.C.",
"4.m.g.Z.M.N.N.N.N.B.V.V.B.B.B.B.B.B.N.N.B.B.B.M.Z.g.A.A.g.Z.M.N.B.B.V.V.N.N.N.B.M.M.N.N.N.B.B.B.",
"4.c.^.g.g.h././.h.j.j.j.g.h.h.h.h.h.h.h.h.h.h.g.(.).c.x.^.g.g.h.h.j.j.k.j.h.h.h.h.h././.h.h.h.h.",
"8._.`.'.A.A.A.A.A.A.A.A.y.y.'.'.A.A.A.A.A.A.A.A.A.c.]._.x.A.A.A.A.A.y.y.A.A.A.A.A.A.[.[.'.'.A.A.",
"y.m.'.'.A.A.A.A.m.y.y.x.p._.`.'.A.A.A.A.A.A.A.A.A.A.m.y.A.A.A.A.A.x._.p.x.A.A.A.A.A.A.A.'.'.A.A.",
"(.g.h.h.h.h././.g.d.f.{.x.x.^.g.g.h.h.h.h.h.h.h.h.h.h.h.j.j.j.h.h.b.x.x.^.g.g.h.h.h.h.h.h.h.h.h.",
"~.~.M.M.M.M.~.}.D.d.d.{.x.y.d.|.Z.M.M.M.M.M.M.M.M.M.M.M.M.M.M.Z.Z.n.A.A.f.|.Z.B.M.M.M.M.M.M.M.M.",
"~.~.M.M.M.Z.Z.D. Xy..Xt.p.y.d.|.M.M.~.~.M.M.M.M.M.M.M.M.M.M.~.Z.Z.f.A.A.f.|.XXB.B.M.M.B.B.B.M.M.",
"(.g.h.h.g.g.d.z.x.8.8.8.a.t.z.f.f.k.(.(.g.g.k.k.g.g.g.g.g.g.g.g.l.z.x.x.z.d.h.h.h.g.g.h.h.h.h.g.",
"y.y.y.y.y.y.y.t.oXw.OXe.e.r.t.y.y.y.m.m.y.y.y.y.y.y.y.y.y.y.y.y.y.t.r.r.t.y.y.y.y.y.y.y.y.y.y.y.",
"a.8.8.8.8.a.a.8.OXOX].].e.e.+X8.a.a.a.a.a.a.a.a.a.a.a.a.a.a.a.a.a.@Xe.e.@X8.8.8.8.a.a.8.8.8.8.a.",
"e.e.e.e.@Xa.a.#Xe.e.].].e.e.OXOXe.e.#Xa.e.e.e.e.e.e.e.e.e.e.e.e.e.e.e.e.e.e.e.e.e.#X#X#X#Xe.@X@X",
"e.e.e.e.e.e.#X#Xe.e.].].e.e.OXOX].].e.e.e.e.e.e.e.e.e.e.e.e.e.e.e.e.e.e.e.e.e.e.e.e.#X#Xe.e.e.e.",
"e.e.e.e.].].e.e.e.e.e.e.e.e.e.e.e.e.e.e.e.e.e.e.e.e.OXOXe.e.e.e.OXOXe.e.e.e.e.e.e.e.e.e.OXOX].].",
"e.e.e.e.].].e.e.e.e.e.e.e.e.e.e.e.e.e.e.e.e.e.e.e.e.OXOXe.e.e.e.OXOXe.e.e.e.e.e.e.e.e.e.OXOX].].",
"e.e.e.e.e.e.e.e.OXOXe.e.e.e.e.e.e.e.e.e.e.e.e.e.e.e.e.e.e.e.e.e.e.e.].].e.e.e.e.e.e.e.e.OXOXe.e.",
"e.e.e.e.e.e.e.e.OXOXe.e.e.e.e.e.e.e.e.e.e.e.e.e.e.e.e.e.e.e.e.e.e.e.].].e.e.e.e.e.e.e.e.OXOXe.e.",
"e.e.e.e.e.e.#X#Xe.e.e.e.#X#Xe.e.].].e.e.e.e.e.e.e.e.e.e.e.e.e.e.e.e.].].e.e.OXOX].].e.e.OXOXe.e.",
"e.e.e.e.e.e.#X#Xe.e.e.e.#X#Xe.e.].].e.e.e.e.e.e.e.e.e.e.e.e.e.e.e.e.].].e.e.OXOX].].e.e.OXOXe.e."
};
