/* XPM */
static char *_f4f1d8c04a64e58ceb101f89427da8bwiYZFb0IQHwHu1I5[] = {
/* columns rows colors chars-per-pixel */
"48 48 175 2 ",
"   c #0A090E",
".  c #0D0D13",
"X  c #110F16",
"o  c #141215",
"O  c #1B1511",
"+  c #15131A",
"@  c #18161D",
"#  c #1B181D",
"$  c #1A1913",
"%  c #241C12",
"&  c #2D2114",
"*  c #2F2D15",
"=  c #27241F",
"-  c #3C2D1D",
";  c #362A1F",
":  c #3E3E15",
">  c #1A1720",
",  c #1C1A22",
"<  c #1F1F28",
"1  c #161420",
"2  c #221D27",
"3  c #221E29",
"4  c #25222B",
"5  c #28242E",
"6  c #2B2625",
"7  c #302D29",
"8  c #3D392C",
"9  c #2C2633",
"0  c #2E2A34",
"q  c #312C36",
"w  c #342D3C",
"e  c #392F3F",
"r  c #35303B",
"t  c #3A333D",
"y  c #4C391F",
"u  c #523E27",
"i  c #423C34",
"p  c #4A4818",
"a  c #474516",
"s  c #5D5C1C",
"d  c #674A14",
"f  c #6F5014",
"g  c #755415",
"h  c #64631B",
"j  c #726F1C",
"k  c #787819",
"l  c #72721D",
"z  c #45412E",
"x  c #594626",
"c  c #474233",
"v  c #4D4C32",
"b  c #694B22",
"n  c #705121",
"m  c #68662A",
"M  c #362E40",
"N  c #3D3347",
"B  c #3E3448",
"V  c #3F3A45",
"C  c #41394C",
"Z  c #474748",
"A  c #48474A",
"S  c #4B4B4B",
"D  c #50514E",
"F  c #484053",
"G  c #4F4C53",
"H  c #504F52",
"J  c #565559",
"K  c #646352",
"L  c #676669",
"P  c #6A696C",
"I  c #885F17",
"U  c #835D18",
"Y  c #9A6B12",
"T  c #966915",
"R  c #9F7010",
"E  c #A77218",
"W  c #B57C16",
"Q  c #B97F13",
"!  c #969517",
"~  c #9A981A",
"^  c #898A18",
"/  c #BD8214",
"(  c #ADAC17",
")  c #B0AF17",
"_  c #BFBE14",
"`  c #B8B618",
"'  c #898921",
"]  c #96953A",
"[  c #C28512",
"{  c #C48C12",
"}  c #CB8A10",
"|  c #C39912",
" . c #D99F12",
".. c #CDA30F",
"X. c #CDBE0E",
"o. c #DEB40E",
"O. c #DEBE0B",
"+. c #C0AC12",
"@. c #D5B311",
"#. c #EBAE0D",
"$. c #E9A90F",
"%. c #F0AC0C",
"&. c #EDB60B",
"*. c #E4B20E",
"=. c #F0B509",
"-. c #E7B010",
";. c #C4C411",
":. c #C7C810",
">. c #CCC217",
",. c #D8D712",
"<. c #EFDA0C",
"1. c #F5DC09",
"2. c #F5DF1D",
"3. c #E4C70C",
"4. c #E7E70F",
"5. c #FEEF07",
"6. c #F6E509",
"7. c #F7E908",
"8. c #FAEE0F",
"9. c #FBF306",
"0. c #FEFD02",
"q. c #FAF209",
"w. c #FEFC0B",
"e. c #F4F50E",
"r. c #E7E713",
"t. c #ECEB11",
"y. c #FDFD16",
"u. c #FFFF1F",
"i. c #F6F512",
"p. c #F8E716",
"a. c #F3D926",
"s. c #F0F138",
"d. c #FBFD3A",
"f. c #FDFE34",
"g. c #B7B846",
"h. c #9FA07E",
"j. c #C6C654",
"k. c #FCFD4D",
"l. c #FCFD53",
"z. c #DDDD79",
"x. c #E4E463",
"c. c #FDFD65",
"v. c #FCFB78",
"b. c #858682",
"n. c #96958F",
"m. c #97979A",
"M. c #9F9E9D",
"N. c #BFBE96",
"B. c #A8A9AB",
"V. c #B2B2AD",
"C. c #AEAEB1",
"Z. c #CCCD81",
"A. c #CDCF90",
"S. c #CFCF9E",
"D. c #C5C599",
"F. c #FDFC8B",
"G. c #FCFC94",
"H. c #C2C2BF",
"J. c #D4D5A4",
"K. c #FEFEAC",
"L. c #E4E5BB",
"P. c #FFFFBD",
"I. c #CFCFC5",
"U. c #CCCCCF",
"Y. c #CECED1",
"T. c #FFFFC7",
"R. c #F0F1D4",
"E. c #DFDFE1",
"W. c #DFE0E1",
"Q. c #E4E5E1",
"!. c #FFFFE4",
"~. c #F5F6EA",
"^. c #F3F5F5",
"/. c #FFFFF3",
"(. c #FFFFFB",
/* pixels */
"N N N N N N N N N N N N N N N N N N N N N N N N N N N N N N N N N N N N N N N N N N N N N N N N ",
"N N N N N N N N N N N N N N N N N N N N N N N N N N N N N N N N N N N N N N N N N N N N N N N N ",
"N N N N N N N N N N N N N N N N N N N N N N N N N N N N N N N N N N N N N N N N N N N N N N N N ",
"N N N N N N N N N N N N N N N N N N N N N N N N N N N N N N N N N N N N N N N N N N N N N N N N ",
"N N N N N N N N N N N N N N N N N N N N N N N N N N N N N N N N N N N N N N N N N N N N N N N N ",
"N N N N N N N N N N N N N N N N N N N N N N N N N N N N N N N N N N N N N N N N N N N N N N N N ",
"N N N N N N N N N N N N N N N N N N N N N N N N N N N N N N N N N N N N N N N N N N N N N N N N ",
"N N N N N N N N N N N N N N N N N N N N N N N N N N N N N N N N N N N N N N N N N N N N N N N N ",
"N N N N N N N N N N N N N N N N N N N N N N N N N N N N N N N N N N N N N N N N N N N N N N N N ",
"N N N N N N N N N N N N N N N N N N C F B N N N N 0 @ @ @ @ @ 4 r N N N N N N N N N N N N N N N ",
"N N N N N N N N N N N N N N N N N N N N N N N N N r 0 7 * * * * 8 N N N N N N N N N N N N N N N ",
"N N N N N N N N N N N N N N N N N N N N N N N t o P Q.x.4.r.r.r.! + 0 N N N N N N N N N N N N N ",
"N N N N N N N N N N N N N N N N N N N N N N q V J h.K.j.( ) _ w.;.s c q N N N N N N N N N N N N ",
"N N N N N N N N N N N N N N N N N N N N N N + A ^.G.y.h . . : t.w.y.j . N N N N N N N N N N N N ",
"N N N N N N N N N N N N N N N N N N N N N N o A ^.D.k v q q i l ( w._ ^ z 0 N N N N N N N N N N ",
"N N N N N N N N N N N N N N N N N N N N N N # S ~.n.. w N N M . h e.w.e.a # N N N N N N N N N N ",
"N N N N N N N N N N N N N N N N N N N N 5 0 B.S.k.] . w N N N w i p ) w.| T 6 4 N N N N N N N N ",
"N N N N N N N N N N N N N N N N N N N N , 5 E.P.w.! . w N N N N w 1 ' ,.#.} % @ N N N N N N N N ",
"N N N N N N N N N N N N N N N N N N N N , 5 W.P.y.! . w N N N N N N 7 * / } % > N N N N N N N N ",
"N N N N N N N N N N N N N N N N N N N N 9 q m.N.c.g.s c w N N N N N 3 O Q } % > N N N N N N N N ",
"N N N N N N N N N N N N N N N N N N N N B N + A ~.G.i.h X N N N N N 4 O Q } % > N N N N N N N N ",
"N N N N N N N N N N N N N N N N N N N N N N o Z ^.G.w._ ' 8 4 3 4 4 m ~  .} % > N N N N N N N N ",
"N N N N N N N N N N N N N N N N N N N N B N , D ~.F.9.w.t.a $ $ O O ~ w.-./ % , N N N N N N N N ",
"N N N N N N N N N N N N N N N N N N N B 5 0 C.J.k.a.&.=.&.>.;.:.+./  .-.d - t N N N N N N N N N ",
"N N N N N N N N N N N N w w w w N N N w t S L.G.8.O.[ [ { <.5.9.3.[ [ Q - , N N N N N N N N N N ",
"N N N N N N N N N N N 9 o . . . , N 9 o B.R.d.p.%.T O O & { %.%.R O O % t N N N N N N N N N N N ",
"N N N N N N N N N N N 5 o H L L J w G L A.F.2.O.Y b 4 4 6 U Y Y n 4 4 5 N N N N N N N N N N N N ",
"N N N N N N N N B N N 5 @ H.(.(.V.. b./.l.q.#.W O 4 B B N # . . 5 B B B N N N N N N N N N N N N ",
"N N N N N N N N 2 3 3 @ $ j.c.c.z.M.Z.c.a.o.g x q w N N N q 9 9 w N N N N N N N N N N N N N N N ",
"N N N N N N N N . o , , = ;.0.0.l.!.v.9.*.[ & < B N N N N N N N N N N N N N N N N N N N N N N N ",
"N N N N N N N N   H U.Y.I.s.0.0.y.d.a.#.f ; r N N N N N N B N N N N N N N N N N N N N N N N N N ",
"N N N N N N N N   K T.T.P.f.0.0.9.7.@.W y , N N N N N N N B N N N N N N N N N N N N N N N N N N ",
"N N N N N N N N . h u.y.y.w.0.0.6.%.U O r N N N N N N N N N N N N N N N N N N N N N N N N N N N ",
"N N N N N N N N 2 x ~ X.1.q.9.1.@.T x 4 t N N N N N N N N N N N N N N N N N N N N N N N N N N N ",
"N N N N N N N N N w . I $.6.q.#.E o 0 N N N N N N N N N N N N N N N N N N N N N N N N N N N N N ",
"N N N N N N N N N N r u d ..o.f u r N N N N N N N N N N N N N N N N N N N N N N N N N N N N N N ",
"N N N N N N N N N N N 9 $ E / % 3 B N N N N N N N N N N N N N N N N N N N N N N N N N N N N N N ",
"N N N N N N N N N N N N e ; - t N N N N N N N N N N N N N N N N N N N N N N N N N N N N N N N N ",
"N N N N N N N N N N N N N 4 4 N N N N N N N N N N N N N N N N N N N N N N N N N N N N N N N N N ",
"N N N N N N N N N N N N N N N N N N N N N N N N N N N N N N N N N N N N N N N N N N N N N N N N ",
"N N N N N N N N N N N N N N N N N N N N N N N N N N N N N N N N N N N N N N N N N N N N N N N N ",
"N N N N N N N N N N N N N N N N N N N N N N N N N N N N N N N N N N N N N N N N N N N N N N N N ",
"N N N N N N N N N N N N N N N N N N N N N N N N N N N N N N N N N N N N N N N N N N N N N N N N ",
"N N N N N N N N N N N N N N N N N N N N N N N N N N N N N N N N N N N N N N N N N N N N N N N N ",
"N N N N N N N N N N N N N N N N N N N N N N N N N N N N N N N N N N N N N N N N N N N N N N N N ",
"N N N N N N N N N N N N N N N N N N N N N N N N N N N N N N N N N N N N N N N N N N N N N N N N ",
"N N N N N N N N N N N N N N N N N N N N N N N N N N N N N N N N N N N N N N N N N N N N N N N N ",
"N N N N N N N N N N N N N N N N N N N N N N N N N N N N N N N N N N N N N N N N N N N N N N N N "
};
