/* XPM */
static char *d475d5d16991413e854906eade452434To3u1EYDjI54t2qw[] = {
/* columns rows colors chars-per-pixel */
"48 48 251 2 ",
"   c #000000",
".  c #0B0201",
"X  c #0A0606",
"o  c #140000",
"O  c #1B0101",
"+  c #180D06",
"@  c #1B1605",
"#  c #020518",
"$  c #191215",
"%  c #230000",
"&  c #2B0200",
"*  c #280B05",
"=  c #340100",
"-  c #370500",
";  c #281506",
":  c #361803",
">  c #3C1B01",
",  c #270E11",
"<  c #281A17",
"1  c #391D16",
"2  c #3B2305",
"3  c #2A2315",
"4  c #2D2810",
"5  c #38271A",
"6  c #000023",
"7  c #0C182A",
"8  c #021A3C",
"9  c #19222F",
"0  c #2B2524",
"q  c #372825",
"w  c #393324",
"e  c #2F3036",
"r  c #440802",
"t  c #421A00",
"y  c #461D15",
"u  c #492704",
"i  c #552A02",
"p  c #4B3400",
"a  c #593404",
"s  c #5C3A01",
"d  c #462818",
"f  c #502B1B",
"g  c #583817",
"h  c #653D04",
"j  c #6E3E10",
"k  c #432D22",
"l  c #4A2C27",
"z  c #562A28",
"x  c #4C3529",
"c  c #563B27",
"v  c #512933",
"b  c #563936",
"n  c #623C32",
"m  c #5C4300",
"M  c #554A0E",
"N  c #694905",
"B  c #675500",
"V  c #755603",
"C  c #77540E",
"Z  c #69481C",
"A  c #685419",
"S  c #79670C",
"D  c #544428",
"F  c #575329",
"G  c #574536",
"H  c #514934",
"J  c #684625",
"K  c #6B462B",
"L  c #6F4F29",
"P  c #6B4B2D",
"I  c #775729",
"U  c #654736",
"Y  c #744E34",
"T  c #6B5338",
"R  c #775638",
"E  c #736A32",
"W  c #0B0C4B",
"Q  c #061B45",
"!  c #191857",
"~  c #172847",
"^  c #0E2D51",
"/  c #2B344E",
"(  c #3C3347",
")  c #353548",
"_  c #2B3250",
"`  c #1B3C60",
"'  c #243A68",
"]  c #383E6B",
"[  c #2F496D",
"{  c #2C4A76",
"}  c #384C79",
"|  c #3B617B",
" . c #484848",
".. c #544546",
"X. c #514E52",
"o. c #585658",
"O. c #654741",
"+. c #734948",
"@. c #6B5647",
"#. c #785946",
"$. c #795A59",
"%. c #6D6549",
"&. c #7B6649",
"*. c #7A6453",
"=. c #7C695F",
"-. c #464A68",
";. c #495667",
":. c #595866",
">. c #59556B",
",. c #455979",
"<. c #5C6065",
"1. c #6C6A6E",
"2. c #7A7975",
"3. c #886901",
"4. c #8F6F04",
"5. c #9A7708",
"6. c #966D19",
"7. c #9F7D16",
"8. c #A46F1A",
"9. c #81573A",
"0. c #946B2A",
"q. c #987729",
"w. c #886937",
"e. c #917633",
"r. c #A27F26",
"t. c #885D47",
"y. c #866748",
"u. c #916F4B",
"i. c #8D744B",
"p. c #896955",
"a. c #846B5C",
"s. c #936A55",
"d. c #977758",
"f. c #A8795E",
"g. c #835D65",
"h. c #897063",
"j. c #927665",
"k. c #977665",
"l. c #9B7B64",
"z. c #957C6B",
"x. c #A37765",
"c. c #AA7F71",
"v. c #A88616",
"b. c #B28F12",
"n. c #918C2E",
"m. c #B48D27",
"M. c #AA9627",
"N. c #AC912E",
"B. c #AB8A35",
"V. c #B79434",
"C. c #BCA328",
"Z. c #D0AE14",
"A. c #C7962B",
"S. c #C7B229",
"D. c #D7B72B",
"F. c #CDAE34",
"G. c #D5AC36",
"H. c #E4B82E",
"J. c #E2B438",
"K. c #E9C800",
"L. c #FDD61C",
"P. c #D9C428",
"I. c #E8C827",
"U. c #E4D328",
"Y. c #ECCC30",
"T. c #F5CE35",
"R. c #EDD53D",
"E. c #F8D237",
"W. c #FFE925",
"Q. c #91894F",
"!. c #968959",
"~. c #AB9253",
"^. c #A9A35A",
"/. c #B8AB50",
"(. c #9C816C",
"). c #988C6B",
"_. c #A88668",
"`. c #AF936E",
"'. c #B9956B",
"]. c #A58875",
"[. c #B38D72",
"{. c #B7A973",
"}. c #C19F4D",
"|. c #D8B747",
" X c #CCAB51",
".X c #F1BD44",
"XX c #CC9B78",
"oX c #CBAD77",
"OX c #D6A67B",
"+X c #E5AB7B",
"@X c #E9B17E",
"#X c #E3C648",
"$X c #F9CA46",
"%X c #F7D64A",
"&X c #ECC959",
"*X c #F3E746",
"=X c #E8CD72",
"-X c #354987",
";X c #385087",
":X c #315EA2",
">X c #4A5A86",
",X c #4E5891",
"<X c #4A658C",
"1X c #566787",
"2X c #4A6597",
"3X c #546F98",
"4X c #4E7396",
"5X c #6F708C",
"6X c #6A769A",
"7X c #4767A6",
"8X c #4D73A8",
"9X c #5576A6",
"0X c #5071AB",
"qX c #5576B9",
"wX c #617BB0",
"eX c #7D838B",
"rX c #64839B",
"tX c #6682A5",
"yX c #8D8B94",
"uX c #98949D",
"iX c #A2998C",
"pX c #B69C86",
"aX c #BAAF8D",
"sX c #9699A2",
"dX c #A7ADA9",
"fX c #C39E8A",
"gX c #DDAB86",
"hX c #C9B38C",
"jX c #D7B38B",
"kX c #C6AA94",
"lX c #CAB091",
"zX c #D4B69C",
"xX c #E8B687",
"cX c #EEB78C",
"vX c #E9BA98",
"bX c #CAAFA3",
"nX c #D6BBA3",
"mX c #DCCA91",
"MX c #F5C796",
"NX c #FDE79D",
"BX c #D4CDB5",
"VX c #E8C9A5",
"CX c #FACCA6",
"ZX c #E9D6AC",
"AX c #FDD6AC",
"SX c #E8C9B7",
"DX c #FDDAB6",
"FX c #DAD7D4",
"GX c #E1D9C7",
"HX c #FFE7C4",
"JX c #FEFDE8",
/* pixels */
"( ( ( ( ( ( ( ( ( ( ( ( ( ( ( (     k ; 5 2 c k 2 c k d 5 %       ( ( ( ( ( ( ( ( ( ( ( ( ( ( ( ",
"( ( ( ( ( ( ( ( ( ( ( ( ( ( (   o * x O.@.#.a.U x *.*.*.@.k k % G   ( ( ( ( ( ( ( ( ( ( ( ( ( ( ",
"( ( ( ( ( ( ( ( ( ( ( ( ( (   & @.z.z.z.(.].#.f > T l.].(.z.a.$.b     ( ( ( ( ( ( ( ( ( ( ( ( ( ",
"( ( ( ( ( ( ( ( ( ( ( ( (   - *.aX].j.l._.y.P Y R K R #.p.].#.a.a.U O.  ( ( ( ( ( ( ( ( ( ( ( ( ",
"( ( ( ( ( ( ( ( ( ( ( (   : *.].pXl.p.y.y.J Y R R Y K K R d.k.z.j.h.> =.  ( ( ( ( ( ( ( ( ( ( ( ",
"( ( ( ( ( ( ( ( ( ( (   * *.pXpXp.y.Y P J K y.R j t.9.Y K Y l.].j.j.@.&   ( ( ( ( ( ( ( ( ( ( ( ",
"( ( ( ( ( ( ( ( ( ( (   % kXkXzXlXR u i R _._.s.t.f.[.s.J & J _.nXj.U k   ( ( ( ( ( ( ( ( ( ( ( ",
"( ( ( ( ( ( ( ( ( (   g T ].fX].y.u g R d.[.K z z f s._.y.M p P p._.l.#.D   ( ( ( ( ( ( ( ( ( ( ",
"( ( ( ( ( ( ( ( ( (   2 #.l.[.d.P > &._.`.y.f y z r #._._.E p g t.c._.p.c o   ( ( ( ( ( ( ( ( ( ",
"( ( ( ( ( ( ( ( ( (   f T s.l.t.c u z.zX[.n t n +.r K d.{.i.g c #.x.k.#.x *   ( ( ( ( ( ( ( ( ( ",
"( ( ( ( ( ( ( ( ( (   % d +.p.n = O.z.].j.Y u t.x.r g u.`.(.#.z v $.g.b < q   ( ( ( ( ( ( ( ( ( ",
"( ( ( ( ( ( ( ( ( (   1 d y U b x $.$.a.a.f g u.f.h a J R #.$.n v +.$.b , 0   ( ( ( ( ( ( ( ( ( ",
"( ( ( ( ( ( ( ( ( (   ; k d O.O.l b b G U t 9.'.XXu.a g c b x l b $.O.x 5 3   ( ( ( ( ( ( ( ( ( ",
"( ( ( ( ( ( ( ( ( (   ; k l O.b 1 , < 1 d u _.xXcXOXZ d d 5 * 1 x #.d k 5 @   ( ( ( ( ( ( ( ( ( ",
"( ( ( ( ( ( ( ( ( (   < q = 1 1 * o * * * K OXCXMXxX9.1 O o O ; > 2 & : ;     ( ( ( ( ( ( ( ( ( ",
"( ( ( ( ( ( ( ( ( ( (   1 bXU U (.h.5 O 1 [.OXOX+XCXXXU O O *.d.R - aX%.H   ( ( ( ( ( ( ( ( ( ( ",
"( ( ( ( ( ( ( ( ( ( (   o bXT &.zXnXT d n gXxX@XxXcXvXp.d x pXmX!.u hXD X.  ( ( ( ( ( ( ( ( ( ( ",
"( ( ( ( ( ( ( ( ( ( (   G =.U i.hXHXi.P R cXcXcXxX+XvXx.K U nXZX`.m &.x   ( ( ( ( ( ( ( ( ( ( ( ",
"( ( ( ( ( ( ( ( ( ( ( (     d y.{.DXw.h I jXxX@X+X@XvXd.g i VXhXi.J     ( ( ( ( ( ( ( ( ( ( ( ( ",
"( ( ( ( ( ( ( ( ( ( ( ( (   x U hXmXZXVXVXAXAXAXAXCXCXCXSXSXSXjXi.O   ( ( ( ( ( ( ( ( ( ( ( ( ( ",
"( ( ( ( ( ( ( ( ( ( ( ( (   T = T {.VXDXDXHXAXCXAXDXDXHXHXSXzXp.d :   ( ( ( ( ( ( ( ( ( ( ( ( ( ",
"( ( ( ( ( ( ( ( ( ( ( ( (   w.u & R d.pXCXDXCXMXCXDXAXAXzXj.a.g - C   ( ( ( ( ( ( ( ( ( ( ( ( ( ",
"( ( ( ( ( ( ( ( ( ( ( (   & q.q.N % O U '.XXOXgXgXgXXX'.y.O O a 6.}.%   ( ( ( ( ( ( ( ( ( ( ( ( ",
"( ( ( ( ( ( ( ( ( ( ( (   7.|. Xq.A u t i & - - - = = u p : Z q.F.&Xv.a   ( ( ( ( ( ( ( ( ( ( ( ",
"( ( ( ( ( ( ( ( ( ( (   i G.%X#XV.q.s L w.I s i a i C S C s 0.V.F.$X|.3.  ( ( ( ( ( ( ( ( ( ( ( ",
"( ( ( ( ( ( ( ( ( (     3.E.Y.S.N.}.N w.oX Xv.7.7.5.C.F.N.m ~.V.b.T.%Xb.4.  ( ( ( ( ( ( ( ( ( ( ",
"( ( ( ( ( ( ( ( ( (   s S.L.K.v.N NXV e.MX#XR.R.R.P.U.*XF.=  Xv.4.E.T.D.4.  ( ( ( ( ( ( ( ( ( ( ",
"( ( ( ( ( ( ( ( (     5.T.K.W.Z.S =Xe.~.=XY.I.I.U.U.U.U.S.V =XB.4.$XI.T.A.V   ( ( ( ( ( ( ( ( ( ",
"( ( ( ( ( ( ( ( (   3.A.E.L.Z.3.p /.S e./.%XY.Y.T.I.U.P.M.u }.I h J.I.T.D.7.  ( ( ( ( ( ( ( ( ( ",
"( ( ( ( ( ( ( (   t 6.G.$XE.b.m @ E ^.^.N.#XD.H.H.D.D.S.M.~.!.x > r.H.E.H.m.r   ( ( ( ( ( ( ( ( ",
"( ( ( ( ( ( ( (   t 6.J.$X.X5.p . F BXZXQ.B.m.m.m.V.M.N.{.JXa.5 & N G.$XH.v.i   ( ( ( ( ( ( ( ( ",
"( ( ( ( ( ( ( (   t h 8.A. XN ; 3  .dXeX0 y.L Z Z L A M %.FX<.0 < D B.C.v.V r   ( ( ( ( ( ( ( ( ",
"( ( ( ( ( ( ( (   g e.0.h 0.g 4 9 1X1X,.) ..x c G H H w ) 5X1X) $ 5 I B N B.h   ( ( ( ( ( ( ( ( ",
"( ( ( ( ( ( ( (   g '.~.C J d < / wX;X-X>X>.:.:.>.-.:.;.;.' 6X-.9 < D A i.xXs   ( ( ( ( ( ( ( ( ",
"( ( ( ( ( ( ( (   D lXjXf.g + 9 } wXqX7X2X6X6X6X6X3X1X6XrX<XtX1X/ # w &.fXZXs   ( ( ( ( ( ( ( ( ",
"( ( ( ( ( ( ( ( (   j.a g O . e <X7X:XqXqX' ' ' { -X{ { | 4X4X,./ #   w D >   ( ( ( ( ( ( ( ( ( ",
"( ( ( ( ( ( ( ( ( (         e 7 } 9XqX8X7X<X>X[ ` { <X4X4X9XtX,.~ #         ( ( ( ( ( ( ( ( ( ( ",
"( ( ( ( ( ( ( ( ( ( ( ( (    .# ' 2X8X0X8X>X[ ^ ^ ` ;X4X9X3X3X[ 9 #   ( ( ( ( ( ( ( ( ( ( ( ( ( ",
"( ( ( ( ( ( ( ( ( ( ( ( (   o.6 ~ { <X9X9X} Q 8 8 Q ' ;X3X2X} _ 7 #   ( ( ( ( ( ( ( ( ( ( ( ( ( ",
"( ( ( ( ( ( ( ( ( ( ( ( (   yX_ 6 [ } } } ,X~ 6 # ~ { -X-X,X,X~ 6 <.  ( ( ( ( ( ( ( ( ( ( ( ( ( ",
"( ( ( ( ( ( ( ( ( ( ( ( (   uX>.-.Q Q Q Q 6 -./ 7 ;._ ! ! W ! ] :.:.  ( ( ( ( ( ( ( ( ( ( ( ( ( ",
"( ( ( ( ( ( ( ( ( ( ( ( (   yX2.sXeXeX5X:.) 1.) 7 <.-.>.5X5X5XuXuXo.  ( ( ( ( ( ( ( ( ( ( ( ( ( ",
"( ( ( ( ( ( ( ( ( ( ( ( (   2.1.BXJXJXGXdX2.o.0 $ X.1.iXBXJXJXGXiX..  ( ( ( ( ( ( ( ( ( ( ( ( ( ",
"( ( ( ( ( ( ( ( ( ( ( ( (    .w !.aXaX{.).%.$ X X . D E ^.mXoX!.H +   ( ( ( ( ( ( ( ( ( ( ( ( ( ",
"( ( ( ( ( ( ( ( ( ( ( ( (   $ + w {.E B M E @   .   F S B B /.T , X   ( ( ( ( ( ( ( ( ( ( ( ( ( ",
"( ( ( ( ( ( ( ( ( ( ( ( (     . 3 {.^.n.E 5 + .   . 4 A n.n./.F . .   ( ( ( ( ( ( ( ( ( ( ( ( ( ",
"( ( ( ( ( ( ( ( ( ( ( ( ( (   . 3 ).`.!.T . . .   .   D Q.^.!.D .   ( ( ( ( ( ( ( ( ( ( ( ( ( ( ",
"( ( ( ( ( ( ( ( ( ( ( ( ( (     . .   . .       X   . . . o . o .   ( ( ( ( ( ( ( ( ( ( ( ( ( ( "
};
