/* XPM */
static char *_e1f9bdadbb14b2af3e0a6f697b08c46oDh3TdjkQppbO5Tp[] = {
/* columns rows colors chars-per-pixel */
"48 82 219 2 ",
"   c #0D0B0E",
".  c #060506",
"X  c #110C0E",
"o  c #0F0C11",
"O  c #110E12",
"+  c #151115",
"@  c #191516",
"#  c #16121A",
"$  c #1A161B",
"%  c #1D191B",
"&  c #161B19",
"*  c #0D1616",
"=  c #211B1D",
"-  c #25271B",
";  c #2C361E",
":  c #1C1720",
">  c #1D1A23",
",  c #121D21",
"<  c #231D23",
"1  c #241E2A",
"2  c #281E2C",
"3  c #19282B",
"4  c #1D2B31",
"5  c #153837",
"6  c #0C2F2D",
"7  c #262124",
"8  c #2B2326",
"9  c #2B2A24",
"0  c #25222C",
"q  c #2C252A",
"w  c #242B2B",
"e  c #2C2B2C",
"r  c #262A24",
"t  c #302729",
"y  c #322A2C",
"u  c #2C3429",
"i  c #39332E",
"p  c #353B2B",
"a  c #343629",
"s  c #2C2533",
"d  c #2E2A33",
"f  c #282834",
"g  c #332D33",
"h  c #342B3C",
"j  c #322836",
"k  c #243432",
"l  c #293534",
"z  c #273A35",
"x  c #353133",
"c  c #3B3334",
"v  c #3D3C32",
"b  c #3B353A",
"n  c #3D3B3A",
"m  c #353839",
"M  c #1F2217",
"N  c #433B3C",
"B  c #413C35",
"V  c #14433E",
"C  c #384628",
"Z  c #3E4337",
"A  c #38502C",
"S  c #41552C",
"D  c #454C34",
"F  c #474939",
"G  c #4C533C",
"H  c #4A5935",
"J  c #52593D",
"K  c #414F2D",
"L  c #4E6533",
"P  c #54643C",
"I  c #56673A",
"U  c #536C39",
"Y  c #362D40",
"T  c #382F42",
"R  c #3C3246",
"E  c #3E3448",
"W  c #3A3543",
"Q  c #2E3843",
"!  c #433C44",
"~  c #443B48",
"^  c #493F51",
"/  c #1A4843",
"(  c #0F5249",
")  c #274946",
"_  c #394847",
"`  c #395857",
"'  c #32564D",
"]  c #2C6957",
"[  c #2B7569",
"{  c #326D69",
"}  c #186F66",
"|  c #454242",
" . c #4B4444",
".. c #4E464B",
"X. c #4B4948",
"o. c #524B4D",
"O. c #514F47",
"+. c #4C5143",
"@. c #565748",
"#. c #4B4253",
"$. c #544C52",
"%. c #524959",
"&. c #5B5354",
"*. c #5C545A",
"=. c #5A5859",
"-. c #485453",
";. c #635C5C",
":. c #625A56",
">. c #5B6543",
",. c #5C6C43",
"<. c #596646",
"1. c #5E7542",
"2. c #4B6D57",
"3. c #636B48",
"4. c #627444",
"5. c #637B46",
"6. c #6B7B4C",
"7. c #68764A",
"8. c #6F7D52",
"9. c #727A52",
"0. c #69635F",
"q. c #655D63",
"w. c #566A68",
"e. c #4A6A62",
"r. c #6B6565",
"t. c #6B646A",
"y. c #6F6A6A",
"u. c #666566",
"i. c #726D6D",
"p. c #77726F",
"a. c #746C74",
"s. c #757273",
"d. c #7A7475",
"f. c #7C7678",
"g. c #7E7A7B",
"h. c #7A7A78",
"j. c #6D7977",
"k. c #5E5D61",
"l. c #827C7D",
"z. c #827C77",
"x. c #338A77",
"c. c #728453",
"v. c #549074",
"b. c #66946B",
"n. c #88827E",
"m. c #847E82",
"M. c #329287",
"N. c #36B29C",
"B. c #2FA697",
"V. c #35B8A9",
"C. c #2DB7A6",
"Z. c #179385",
"A. c #7C8886",
"S. c #4AA88C",
"D. c #459C80",
"F. c #36C6B6",
"G. c #2CC4B3",
"H. c #868182",
"J. c #8A8585",
"K. c #8C868D",
"L. c #8D8989",
"P. c #8E8985",
"I. c #918C8C",
"U. c #948E87",
"Y. c #96918E",
"T. c #969292",
"R. c #9A9595",
"E. c #9D9A99",
"W. c #9C9699",
"Q. c #8E9090",
"!. c #A19C9C",
"~. c #A49F97",
"^. c #A5A19E",
"/. c #9DA5A3",
"(. c #A6A2A1",
"). c #AAA5A4",
"_. c #ADA9A6",
"`. c #AEABAA",
"'. c #ACA7A8",
"]. c #B1AEAB",
"[. c #B4B1AE",
"{. c #B9B6AF",
"}. c #B5B2B1",
"|. c #B9B5B2",
" X c #BCB9B4",
".X c #BEBBBA",
"XX c #B6BCB9",
"oX c #C2BEBC",
"OX c #C4C1BD",
"+X c #C3C0B7",
"@X c #C2BEC0",
"#X c #C7C4C2",
"$X c #C9C5C3",
"%X c #CDCAC5",
"&X c #CDCAC9",
"*X c #D1CECA",
"=X c #D0CDC5",
"-X c #D4D2CD",
";X c #D6D4D2",
":X c #D9D6D1",
">X c #DDDBD5",
",X c #DDDCD9",
"<X c #D4D8D4",
"1X c #E1DFDA",
"2X c #E0DED6",
"3X c #E4E2DD",
"4X c #E7E5DD",
"5X c #E6E5E1",
"6X c #E9E6E1",
"7X c #ECEBE5",
"8X c #EDECE9",
"9X c #F1EFE9",
"0X c #F0EEE7",
"qX c #F4F3EC",
"wX c #F8F7EF",
"eX c #F5F5F1",
"rX c #F8F7F1",
"tX c #FDFCF5",
"yX c #FFFFFA",
/* pixels */
"R R E Y s < % % % % % $ $ # # # # > d W R E E R E R h 0 + . . . . . X + @ @ @ + X   O : h E E R ",
"R R W j 0 < = = = = % % % % < 7 q g E ~ #.#.#.#.#.#.~ b q % $ +     + @ % % = % +   o $ s T R R ",
"R T d 0 < < < 7 7 7 < < < 8 x ! o.*.q.q.q.q.q.q.q.q.q.*.$...N x 7 % = = < 7 7 < @ O   o : s Y R ",
"E h s < < < 7 t y x c n N ..=.i.l.J.L.I.I.I.I.I.I.I.I.L.J.l.p.;...N N b x y y 8 = @     # 1 h E ",
"E h 0 < < 7 q y N ..:.y.d.H.R.).|.oXoXOXoXoXoXoXOXOXOXoXoX|.'.E.J.f.a.u.o.N x y 7 = + O + < h E ",
"T j 0 < 7 8 y c ..q.l.T.(.}.OX*X,X4X4X4X4X4X4X4X4X4X6X6X4X1X;X#X|.).!.J.r.o.N y 8 < % + + : d Y ",
"d 0 1 < 7 t y N *.f.!.|.$X;X,X6XqXrXrXrXrXrXrXrXrXrXrXrXrXqX7X3X;X&XoX).m.;. .x y 7 = @ + # 1 0 ",
"< < < < 7 y c o.y.I.}.*X,X6X8XqXtXyXyXyXyXyXyXyXyXyXyXyXtXtXeX9X7X1X;X.XW.d.&.N y 8 < % + O $ : ",
"$ % < 7 8 y ! :.l.(.#X>X6X8XqXeXtXtXtXtXtXtXtXtXtXtXtXtXtXtXrXwXqX7X,X$X'.L.r...c q 7 = + O O O ",
"+ % < 7 8 c o.i.R.|.*X3X7XqXeXrXtXtXtXtXtXtXtXtXtXtXtXtXtXtXrXrXrX9X3X-X.X!.d.&.N y 7 = +       ",
"# % < 7 8 N ;.H.'.$X:X6XqXrXtXtXtXtXtXtXtXtXtXtXtXtXtXtXtXtXtXtXtXwX6X>X&X].L.r. .g 7 % +       ",
"$ $ < 7 q ! i.T..X;X3X7XwXtXtXtXtXtXtXtXtXtXtXtXtXtXtXtXtXtXtXtXtXrX8X3X;X.XE.d.$.c 7 @ O     o ",
": $ $ < y o.f.(.$X,X7XqXrXtXtXtXtXtXrXwXrXtXtXtXrXrXwXrXtXtXtXtXtXtXwX8X1X%X'.J.:.b =       O + ",
"2 < : < c =.L.}.;X7X9XwXrXtXtXtXtXwX6X4X8XwXtXtXqX7X6X7XwXtXtXtXtXtXrXqX7X:XoXE.i.! %     O $ < ",
"h d < q | y.E.#X3XqXwXrXtXtXtXrXwX4X&X$X,X8XtXrX6X:X&X-X7XrXrXrXtXtXrXwX8X5X;X}.m.$.<   O : s j ",
"R Y s d ~ t.!.%X6XrXrXrXrXrXqX6X:XoX!.(.$X4XtXeX>XOX_._.OX:X3X8XeXtXtXrXwX8X4XOXY.;.e # : s h R ",
"R R h h b *.I.OX7XyXtXtXrXqX3X#X!.l.r.d.].>XeXqX-X_.H.d.J.!. X-X8XrXtXtXtXwX6X%XW.t.E s j h R R ",
"R E R T j #.K.oX7XyXyXtXwX1XoXR.a.&. .q.(.;XeXeX*X^.a.*.;.i.L.].:XqXrXtXtXrX7X&X!.a.^ Y W R R R ",
"R R R T h #.K.oX8XyXyXrX8X$XL.q.$.~ ! q.(.:XeXeX;X_.d.&...o.q.H. X,XqXtXtXrX7X%X!.a.#.T R R R R ",
"R R R R Y %.K.oX8XyXyXqX>X'.t.! ! ~ $.d.}.3XtXtX3XoXI.y...! ~ q.W.$X4XrXtXrX7X&X!.a.#.T R R R R ",
"R R R R Y %.K.@X8XyXrX4XOXT.$.b ! &.f.^.-X9XyXyXqX>X|.I.q. .! $.g._.:XqXtXtX7X&X!.a.#.T R R R R ",
"R R R R Y %.K.@X8XyXwX,X XI.q...*.d.(.$X>X6X6X7X7X4X-X].H.q.$.*.d.^.-XqXtXrX7X&X!.a.#.T R R R R ",
"R R R R Y %.K.@X8XyXqX1XoX^.H.g.L.).&X>X*XOX|.|.$X-X>X*X].T.l.l.I.].:XqXtXrX7X*X!.a.#.T R R R R ",
"R R R R Y %.K.@X8XyXwX4X*X X`.'.|.%X3X>X|.W.H.J.E.|.*X:X*XoX].).].OX3XwXtXrX7X%X!.a.#.T R R R R ",
"R R R R Y %.K.@X8XyXrX0X3X>X-X>X2X3X>XoXI.i.*.*.y.J.].%X3X4X>X-X-X,X8XrXtXrX6X$XW.a.#.T R R R R ",
"R R R R Y %.K.@X8XyXtXwXqX0XqXqXwX7X-X].g.&.! ! $.i.R.OX6XrXqX0X8XqXwXtXyXwX1X.XI.t.^ T R R R R ",
"R R R R Y %.K.@X8XyXtXtXrXrXrXtXtX8X=X).d.&.~ ! ..r.I..X6XtXtXrXrXrXtXtXyXqX-X_.l.*.~ R R E R R ",
"R R R R Y %.K..X7XyXyXtXtXtXtXtXtXqX>X|.L.y.$.$.;.f.^.%X8XyXyXtXtXtXtXtXyX8XOXT.t.#.E R R R R R ",
"R R R R Y #.m.}.3XtXtXtXtXtXtXtXtXrXwX>X[.Y.d.a.J.).*X6XrXtXtXtXtXtXtXyXyX6X[.l.$.W T T R R R E ",
"R R R R T #.a.E.%X6XeXtXtXtXtXtXtXtXyXqX-X X^.!.[.%X7XtXtXtXtXtXtXtXtXtXtX,X(.i.~ j h T W R R R ",
"R R R R R ~ %.s.!.#X6XrXrXtXtXtXtXtXyXrX8X1X-X-X>X4XwXtXtXtXtXtXtXrXrXrX9X*XR.u.E d h W T T T W ",
"R R R R R E ~ *.d.E.OX>X7XqXrXtXtXtXtXtXrXwXqXqXqXwXtXtXtXtXtXrXwXqX8X3X-X`.g.=._ _ ` ` _ Q d f ",
"R R R E R R ~ ~ %.t.H.).&X4X9XwXrXtXtXtXtXtXrXrXrXrXtXtXtXrXwXqX7X1X;XOX/.A.=.` ` { M.M.{ ) 3 , ",
"R R R R R R E E W  .=.g.`.&X:X2X3X3X4X6XqXrXtXtXrXqX7X4X4X3X2X>X:X&X|.E.j.w.` ] [ M.N.N.M.] 6 * ",
"R R R R R E E R h b  .u.R.`.].].{.|.|.OX2XqXtXtXqX3X=X+X X{.[.|..X[.I.j.e.` [ M.B.V.F.V.B.} ( 6 ",
"R R R R R R R h s s b $.f.L.H.l.H.n.n.Y.[.&X>X>X%X{.~.U.P.n.H.I.E.I.y.-._ ' [ B.V.F.F.G.C.Z.( 5 ",
"R R R R E R h d 1 1 e ! =.u.&.&.&.&.o.:.f.U.!.!.U.z.r.:.&.&.&.;.i.r...m l ) [ M.V.F.F.G.C.B.[ ' ",
"R R R E E R j 0 > : 8 x | ..| | o.&.&.;.p.n.U.I.n.p.0.&.o.| N ! o...c e w V ] x.N.G.G.G.C.M.{ ` ",
"R R R E E R d 0 < < 7 y b N  .&.d.P.U.Y.!.).].].).!.Y.n.i.&.N g c c y 9 9 z ] x.B.C.G.V.B.x.` _ ",
"R R R R R Y s 1 < < 8 y x N o.s.^.oXOX$X%X&X*X*X*X$XOX].Y.i.| y y y y 9 9 z ' [ M.N.N.S.v.e._ m ",
"R R R R Y j 0 1 1 7 q y x | r.Y.%X6X8X8X9XqXqXqXqX8X6X:X|.L.&.c y y y y 9 u ) ] x.D.S.v.b.2.Z d ",
"R R R W j s 1 1 7 7 q y x o.f.`.3XtXyXyXyXyXyXyXyXyXtX8X*X^.r.N x y y y 8 e m ' 2.v.b.b.c.<.n e ",
"R R E T s 1 < < 7 8 8 t c &.T.OX6XtXtXtXtXtXtXtXyXtXtXqX>X[.d.o.c y y y q q y v G ,.c.c.8.<.n g ",
"R E E Y s < < < q q 8 y N r.].,XqXtXtXtXtXtXtXtXtXtXtXwX4XOXL.;.N y y y t t t i D I 6.c.7.@.n g ",
"R E E T s 1 1 7 t y q x  .g.$XwXrXtXtXtXtXtXtXtXtXtXtXrX8X*X!.p. .g y y y y 8 y D P 5.5.>.F b h ",
"R R E T s 8 7 8 t y y N ;.Y.>XtXtXtXtXtXtXtXtXtXtXtXtXtXwX,X|.J.&.c y y y y y i D I 5.5.J Z b h ",
"R R R h s q q 8 8 y c o.d._.3XtXtXtXtXtXtXtXtXtXtXtXtXtXrX6X*X^.r.| x y y y i B J 3.6.7.G Z W R ",
"R R h j e q q 8 8 y c &.m.}.4XtXtXtXtXtXtXtXtXtXtXtXtXtXtXqX>X[.i. .c y y i B F >.7.8.7.G n W R ",
"R T d 8 8 8 q q 8 y c $.g.'.3XtXtXtXtXtXtXtXtXtXtXtXtXtXrXqX>X].p. .c y i v D J 3.6.8.3.F n W R ",
"R h 0 < 7 8 y y 8 y x o.f.'.3XtXtXtXtXtXtXtXtXtXtXtXtXtXrX9X>X].i. .c y i v D J 4.6.7.<.F b W R ",
"R h 0 1 7 q y y 8 y c o.f.'.3XtXtXtXtXtXtXtXtXtXtXtXtXtXrX9X>X].i. .c y y i D J 1.1.,.@.| W R R ",
"R h 0 1 7 q y y 8 y c o.f.'.3XtXtXtXtXtXtXtXtXtXtXtXtXtXrX9X>X].i. .c y y i G P U U P G ! R R R ",
"R h 0 7 7 q y y 8 y c o.f.'.3XtXtXtXtXtXtXtXtXtXtXtXtXtXrX9X>X].i. .c y i Z J ,.1.,.J F W R R R ",
"R h q 7 7 q y y 8 y c o.f.'.3XtXtXtXtXtXtXtXtXtXtXtXtXtXrX9X>X].i. .c y i D >.4.5.,.G F E R R R ",
"E h e 7 7 q y y 8 y x o.f.'.3XtXtXtXtXtXtXtXtXtXtXtXtXtXrXqX>X].i. .c i v G >.7.6.7.@. .! R R R ",
"E h 0 1 7 q y y 8 t x o.d.).1XtXtXtXtXtXtXtXtXtXtXtXtXtXrXqX>X].i. .c c B G ,.7.6.7.@.X.! R R R ",
"R h 0 < 7 8 y y 8 q g ..s.).1XtXtXtXtXtXtXtXtXtXtXtXtXtXrX9X>X].i.| c i B G >.4.5.4.>.+.! R R R ",
"R h 0 < 1 7 q t q y b &.l.].4XtXtXtXtXtXtXtXtXtXtXtXtXtXtXqX,X}.d.o.N c v G I 4.5.4.<.+.! R R R ",
"R T d 0 1 1 7 8 y c o.y.R.oX6XtXtXtXtXtXtXtXtXtXtXtXtXtXtXwX4XOXY.r. .v v D P 1.5.1.<.+.! R R R ",
"R W h d 0 1 < 7 y | ;.J.[.;XqXtXtXtXtXtXtXtXtXtXtXtXtXtXtXrX8X:X[.L.;. .F D I 4.c.5.<.+.~ R R R ",
"R R R h d 1 < 1 g X.s.^.&X7XeXtXtXtXtXtXtXtXtXtXtXtXtXtXtXrXeX7X>X}.l.=.F G >.7.c.6.,.+.~ R E E ",
"R E E R h s 1 < e X.s./.-X8XqXqXqXqXqXqXqXwXwXwXwXqXqXqXqXqXqX8X6X#XT.y.@.J >.7.c.6.<.+.! R R E ",
"R R R R R h 0 < 0 m w.Q.XX<X>X,X,X,X,X,X3X4X6X6X6X3X,X,X,X,X,X>X;XoXW.d.=.@.>.4.6.7.@.X.! E R R ",
"R R R E E Y s > , k -.j./.XX}.].[.[.[.|..XoX#X#XoX.X}.].].].].[.|.).L.y.@.J P I ,.>.G | ! R R R ",
"R R R E E T s > & 3 ) w.A.Q.h.i.p.s.s.g.H.L.T.T.L.m.s.a.i.i.i.f.K.m.u.+.D K H L L H D F W R R R ",
"R R R E E T s > , 3 ) ` w.u.$. . . . .o.&.q.t.t.k.&... . . . .o.q.=.F p p A H I I P G F E R R R ",
"R R R E E T d 0 3 5 / ) _ _ n x x x x c n _ _ _ _ n c g g g c b N c 8 - p D >.7.9.7.<.O.! R R R ",
"R R R R R h s w 5 5 / / z e y y y t q e e l l z l l e 8 q t y y y 7 % % u D 3.9.9.9.3.O.! R R R ",
"R R R R h d 0 4 5 V / / k e y y y t 8 8 e w k k k w q 8 8 y y y y 7 @ @ - p H ,.4.>.J F E R R R ",
"R R R T j s 0 4 5 V / / k e y y y t q 8 e w k k k w q 8 t y y y y 8 = % - ; S L L H D n W E R R ",
"R R R T j s 4 5 V / / / l e y y y y t e e k k k k d e t y y y y y y 9 9 ; C S L H K v x W E R R ",
"R R R T j f 4 5 5 V V 5 l e y y y y y y e e l k l e y y y y y y y y y a C A L L H Z x j W E R R ",
"R R R T j f w 4 5 5 6 3 w e y y y y y y e w w w w e y y y y y y y y 9 p K I 5.6.>.F g d T R R R ",
"R R R W j s f 4 3 3 , & 3 7 q y y y y e 8 7 % % < 7 q y y y y q 8 8 - a H 4.c.c.3.F g s Y R R R ",
"R R R R h j d s 1 $ O o @ = 7 q y y y 8 < % @ + @ % 7 q y y q 7 < % @ - D 3.c.c.3.F d s Y E R R ",
"R R R R T h h j 2 : O   + $ = 7 q q 8 < % + O O O @ = 7 q q 7 < % + O M C I 6.6.>.F e s Y E R R ",
"R R R R R R R T j 1 $ O O + % = 7 7 = % + O o   O O @ = 7 7 = % + O   & u S L P K p e s Y E R R ",
"R R R R E E E R Y d 1 $ + O + $ % % $ + + O o o o O + @ % % % + O O + % r C A S C p e d T E R R ",
"R R R R R R E R R Y j 1 $ O O O O O O O O + # + O O O O O O O O + # : 7 9 u C A C p d j T R R R ",
"R R R R R R R E E E T j 1 $ O o       O # : < < : # O         + : 1 s d e u p C p a d j T R R R ",
"R R R R R R R R E R R T j 1 # o       + < d h j 0 : O     o O $ 0 h Y h j e e u u e d j W R R R ",
"R R R R R R R R R R E R Y s $ o o o   # 0 h R R d < +   o O O : j R R R j s e 9 9 e s j W R R R "
};
