/* XPM */
static char *result[] = {
/* columns rows colors chars-per-pixel */
"24 30 83 1 ",
"  c black",
". c #0C0A0B",
"X c #0F150A",
"o c #151112",
"O c #171611",
"+ c #191516",
"@ c #222F16",
"# c #272C1B",
"$ c #2A311D",
"% c #261F21",
"& c #0B302C",
"* c #043832",
"= c #1D3835",
"- c #252122",
"; c #2A2324",
": c #2F2D22",
"> c #2E2628",
", c #2D2B2B",
"< c #312B27",
"1 c #342A25",
"2 c #332A28",
"3 c #332A2C",
"4 c #303522",
"5 c #223B39",
"6 c #3D3632",
"7 c #0F443D",
"8 c #2F4120",
"9 c #3E432C",
"0 c #3F562A",
"q c #42482E",
"w c #404438",
"e c #514B3F",
"r c #4C5436",
"t c #495C33",
"y c #48642D",
"u c #4F6B34",
"i c #527036",
"p c #557537",
"a c #2B644D",
"s c #1D6C63",
"d c #474041",
"f c #464242",
"g c #494444",
"h c #564D4F",
"j c #554E4F",
"k c #5C5651",
"l c #5B5657",
"z c #665F5B",
"x c #655E5E",
"c c #727D50",
"v c #6D6A69",
"b c #706B6A",
"n c #7B7878",
"m c #7F7B7C",
"M c #328675",
"N c #698D48",
"B c #7C8958",
"V c #8A9763",
"C c #98A86D",
"Z c #837F80",
"A c #2FA991",
"S c #6F938F",
"D c #61B397",
"F c #24CBB9",
"G c #4EC3B7",
"H c #928F8F",
"J c #94908C",
"K c #989390",
"L c #9F9899",
"P c #A19C9C",
"I c #A29F9F",
"U c #A0A0A0",
"Y c #ADAAA7",
"T c #B6B3B2",
"R c #C0BFB9",
"E c #C9C6C6",
"W c #CBC8C2",
"Q c #CECDCD",
"! c #DAD4D1",
"~ c #DEDEDC",
"^ c #E9E8E4",
"/ c #F3F2EC",
"( c #FEFDF5",
/* pixels */
"                        ",
"                        ",
"                        ",
"                        ",
"                        ",
"     +3%fllll-33        ",
"     3hE^((((QP3+       ",
"    +3P^((((((Qh3       ",
"     dQ(((((((^L.       ",
"     ,((Wx(KK((!        ",
"      ((3x(W3K(!        ",
"      (WK(KWWK(!        ",
"      (((W3x(((Y        ",
"      R(((W((((v        ",
"       U/((((~HsG*      ",
"       g31Kz2j.AFM      ",
"      +3J(((J33aD$      ",
"      3;(((((;3<N:      ",
"     +3b(((((b3eC       ",
"     33b(((((b3t0       ",
"     33b(((((b3B9       ",
"     %3b(((((b6i8       ",
"      o^(((((^kBr       ",
"       SnZTZmIwy@       ",
"      &=3;=;>>Ocq       ",
"      75335333#pX       ",
"       .33.%3%4V        ",
"        ..  +  u        ",
"               X        ",
"                        "
};
