/* XPM */
static char *_e4ce0d2849a4598b1e7c49b6efb51feLFitMDziI3B7iD13[] = {
/* columns rows colors chars-per-pixel */
"21 36 157 2 ",
"   c #030203",
".  c #09070A",
"X  c #0D0B0D",
"o  c #11110D",
"O  c #0F0C11",
"+  c #130F10",
"@  c #071112",
"#  c #191516",
"$  c #16131A",
"%  c #1B161C",
"&  c #1F191D",
"*  c #1C1D14",
"=  c #221D1E",
"-  c #222F16",
";  c #1D1822",
":  c #251E21",
">  c #241E2A",
",  c #182127",
"<  c #0B302C",
"1  c #043832",
"2  c #272022",
"3  c #2B2325",
"4  c #29222C",
"5  c #222C2B",
"6  c #2E282A",
"7  c #27242B",
"8  c #332A27",
"9  c #302628",
"0  c #332A2C",
"q  c #213727",
"w  c #293122",
"e  c #2C3920",
"r  c #27302F",
"t  c #2F332A",
"y  c #38302F",
"u  c #313425",
"i  c #312B35",
"p  c #322A39",
"a  c #382F3A",
"s  c #2A3232",
"d  c #203836",
"f  c #223A39",
"g  c #26343B",
"h  c #353136",
"j  c #3D3737",
"k  c #403736",
"l  c #453D3E",
"z  c #443C37",
"x  c #384D24",
"c  c #374629",
"v  c #354426",
"b  c #3C5426",
"n  c #424D2F",
"m  c #41432E",
"M  c #445D2C",
"N  c #414331",
"B  c #454D33",
"V  c #4C4A39",
"C  c #4B5034",
"Z  c #4D5B3B",
"A  c #54563E",
"S  c #48652D",
"D  c #4B6533",
"F  c #4F6A36",
"G  c #537039",
"H  c #58783A",
"J  c #527235",
"K  c #3D3347",
"L  c #3F3B40",
"P  c #104B44",
"I  c #114F48",
"U  c #13574F",
"Y  c #1F5756",
"T  c #3A4D4B",
"R  c #2F7C75",
"E  c #474645",
"W  c #4A4344",
"Q  c #4D4749",
"!  c #4D494B",
"~  c #544D4F",
"^  c #5C5C43",
"/  c #544C51",
"(  c #5B5555",
")  c #455757",
"_  c #615A5C",
"`  c #5D6542",
"'  c #5A7440",
"]  c #506A5C",
"[  c #636C45",
"{  c #647847",
"}  c #787A56",
"|  c #6F6769",
" . c #6B6A68",
".. c #696363",
"X. c #777176",
"o. c #7B7475",
"O. c #7D787E",
"+. c #847F7F",
"@. c #618341",
"#. c #6C904A",
"$. c #738050",
"%. c #7A8656",
"&. c #7C8857",
"*. c #789055",
"=. c #57846D",
"-. c #828D5B",
";. c #80995D",
":. c #8B8D67",
">. c #8E9166",
",. c #8D9B65",
"<. c #A0A274",
"1. c #867F80",
"2. c #269B84",
"3. c #31AC97",
"4. c #1BCFBC",
"5. c #1ED0BD",
"6. c #37C3AB",
"7. c #2EC1B1",
"8. c #43C5B7",
"9. c #48C0B3",
"0. c #34D4C3",
"q. c #898383",
"w. c #8D8887",
"e. c #8B8488",
"r. c #878383",
"t. c #97928F",
"y. c #98928A",
"u. c #979695",
"i. c #919F9F",
"p. c #999594",
"a. c #A7A09F",
"s. c #A8A3A3",
"d. c #B1ADA9",
"f. c #B2AEA4",
"g. c #B6B3B3",
"h. c #BDB9B6",
"j. c #BDBBBB",
"k. c #C3BDBD",
"l. c #C8C0BF",
"z. c gray78",
"x. c #C8C5C5",
"c. c #CBC8C2",
"v. c #CDCBCB",
"b. c #C3CBC8",
"n. c #D7D5CF",
"m. c #D3D3D2",
"M. c #DDDAD6",
"N. c #DDDDDB",
"B. c #E3DEDA",
"V. c #E4E2DB",
"C. c #E8E8E4",
"Z. c #EEEDE8",
"A. c #E3E3E0",
"S. c #F1EFE8",
"D. c #F3F2EC",
"F. c #F8F7F0",
"G. c #FEFDF5",
/* pixels */
"K K % & & $ $ $ K K K K X     # # #   K K ",
"K $ : 0 0 3 ( q.1.1.1.1.q...6 0 0 0   X K ",
"K & 0 y w.k.N.G.G.G.G.G.G.C.x.s.l 0 : X K ",
"$ : 0 ~ x.A.Z.G.G.G.G.G.G.D.C.v.X.0 3 X X ",
"% 0 0 s.m.D.G.G.G.G.G.G.G.G.G.m.g.W 0 # X ",
"$ % W x.C.G.G.G.G.G.G.G.G.G.G.D.v.| %   X ",
"K $ q.C.D.G.G.G.d.G.G.d.G.G.G.F.C.k.X X K ",
"K K p G.G.G.n._ j G.G._ _ d.G.G.G.l.K K K ",
"K K K G.G.G.a a ~ G.G.q.a a c.G.G.l.K K K ",
"K K K G.G.d.a _ V.G.G.G.o.a o.G.G.l.K K K ",
"K K K G.G.n.c.V.G._ _ n.S.c.c.G.G.l.K K K ",
"K K K G.G.G.G.G.q.a a ~ G.G.G.G.G.a.K K K ",
"K K K G.G.G.G.G.G.o._ V.G.G.G.G.G.L K K K ",
"K K K  .G.G.G.G.G.S.V.G.G.G.G.G.B.h p p K ",
"K K K K ! z.D.G.G.G.G.G.G.F.N.j.) g 9.R @ ",
"K K K K % u.r.t.y.G.G.f.y.w.g.E Y 0.8.4.1 ",
"K K K % % W 0 8 8 _ _ k 0 0 W : q 3.7.5.] ",
"K K K % 0 0 _ G.G.G.G.G.h.0 0 0 u 2.6.=.7 ",
"K K % : 0 3 p.G.G.G.G.G.V.( 0 0 3 V $.,.i ",
"K K % 0 0 2 G.G.G.G.G.G.G.+.3 0 0 = #.Z i ",
"K K 3 0 3 e.G.G.G.G.G.G.G.M.W 0 y z ;.B K ",
"K % 3 0 3 X.G.G.G.G.G.G.G.M.W 0 N ` -.j K ",
"K & 0 0 3 X.G.G.G.G.G.G.G.M.W 0 0 ' G K K ",
"K & 0 0 3 X.G.G.G.G.G.G.G.M.W 0 N *.B K K ",
"K & 0 0 3 X.G.G.G.G.G.G.G.M.W y A %.[ K K ",
"K % 3 0 3 X.G.G.G.G.G.G.G.M.W 0 n @.F K K ",
"K K % = X.D.G.G.G.G.G.G.G.G.N.l B *.{ K K ",
"K K K $ T b.C.C.C.Z.D.C.C.C.m.w.C &.` K K ",
"K K K O < i.Q ~ ( o.O./ / Q e.t x S c K K ",
"K K K , U 5 0 3 3 r f 6 3 0 3 o ^ :.} K K ",
"K K > , U s 0 0 3 5 d 3 0 0 0 O - H v K K ",
"K K > P I s 0 0 0 s f 0 0 0 0 m b J 7 K K ",
"K K > > . % 0 0 0 % + 9 0 0 3 * >.<.; K K ",
"K K K K O O & 0 & O O + 0 : X . D D ; K K ",
"K K K K K O O X O O O O X X O 4 e M 4 K K ",
"K K K K K K O O O K K O O O K K 4 w 4 K K "
};
