/* XPM */
static char *_73ef848fbaf4013d00a63ea3883a44fPDXs2mMZxRDKm6uz[] = {
/* columns rows colors chars-per-pixel */
"24 41 193 2 ",
"   c #070609",
".  c #0D0B0E",
"X  c #060506",
"o  c #110E0F",
"O  c #13130E",
"+  c #0E0C10",
"@  c #110E12",
"#  c #141014",
"$  c #1A1516",
"%  c #161319",
"&  c #1A161C",
"*  c #1E191C",
"=  c #191815",
"-  c #0A191A",
";  c #221C1D",
":  c #2F3E1F",
">  c #222819",
",  c #1E1721",
"<  c #1E1923",
"1  c #1F1F29",
"2  c #231D24",
"3  c #241E2A",
"4  c #182727",
"5  c #1C2C31",
"6  c #053731",
"7  c #143837",
"8  c #262224",
"9  c #2B2325",
"0  c #2B2B24",
"q  c #27202D",
"w  c #2D252B",
"e  c #252D2C",
"r  c #2C2C2D",
"t  c #332A2C",
"y  c #20322A",
"u  c #39372E",
"i  c #343829",
"p  c #2D2534",
"a  c #2B2932",
"s  c #302737",
"d  c #332B3B",
"f  c #352D35",
"g  c #2C3434",
"h  c #283638",
"j  c #343132",
"k  c #3B3435",
"l  c #3E353D",
"z  c #3E393A",
"x  c #3F3833",
"c  c #443C3C",
"v  c #344325",
"b  c #39442A",
"n  c #3B433A",
"m  c #41432F",
"M  c #40562F",
"N  c #424535",
"B  c #444B39",
"V  c #45463B",
"C  c #4D5538",
"Z  c #4A5B37",
"A  c #545838",
"S  c #46612D",
"D  c #4E6235",
"F  c #54603E",
"G  c #59683D",
"H  c #5B743F",
"J  c #362D41",
"K  c #392F43",
"L  c #3D3347",
"P  c #3E3448",
"I  c #333643",
"U  c #40364A",
"Y  c #433B46",
"T  c #194C46",
"R  c #104A44",
"E  c #335244",
"W  c #335351",
"Q  c #334448",
"!  c #2A735E",
"~  c #3D6357",
"^  c #347270",
"/  c #276762",
"(  c #464143",
")  c #4B4347",
"_  c #524C4D",
"`  c #504847",
"'  c #4E5141",
"]  c #555B43",
"[  c #505241",
"{  c #544D54",
"}  c #565050",
"|  c #595255",
" . c #5C5659",
".. c #605F4D",
"X. c #635C5D",
"o. c #5D6C43",
"O. c #5F7042",
"+. c #626B46",
"@. c #6B754D",
"#. c #687948",
"$. c #6E7958",
"%. c #625B62",
"&. c #5C6F6C",
"*. c #676163",
"=. c #6A6365",
"-. c #6D6969",
";. c #6C676C",
":. c #736D6C",
">. c #766F72",
",. c #6F7B7A",
"<. c #777274",
"1. c #7E777A",
"2. c #7E797B",
"3. c #7D7677",
"4. c #837C7D",
"5. c #3F8C7B",
"6. c #2A8573",
"7. c #658447",
"8. c #77884F",
"9. c #6F8451",
"0. c #7A8756",
"q. c #458A6F",
"w. c #629F79",
"e. c #828E5C",
"r. c #867D85",
"t. c #299088",
"y. c #18A899",
"u. c #27BAA6",
"i. c #36BCA8",
"p. c #41ABA0",
"a. c #34C1AE",
"s. c #35C7B8",
"d. c #8A8483",
"f. c #8B838A",
"g. c #8D898A",
"h. c #868786",
"j. c #928C8E",
"k. c #94908E",
"l. c #9B9695",
"z. c #9E9A9A",
"x. c #949495",
"c. c #A19D9A",
"v. c #A5A19B",
"b. c #A8A49F",
"n. c #A8A4A2",
"m. c #AAA5A9",
"M. c #ABA7A5",
"N. c #B2AEA9",
"B. c #B6B2AF",
"V. c #B4B0A6",
"C. c #BAB6B3",
"Z. c #BCB9B5",
"A. c #BAB7B6",
"S. c #C2BFBC",
"D. c #C3C0BC",
"F. c #C5C3C1",
"G. c #C9C6C4",
"H. c #CFCDC9",
"J. c #C9C9C5",
"K. c #D0CECA",
"L. c #D3D2CE",
"P. c #D9D6D2",
"I. c #DCD9D5",
"U. c #DEDDDA",
"Y. c #D7D7D6",
"T. c #E2DFDA",
"R. c #E4E1DC",
"E. c #E6E4DB",
"W. c #ECEAE3",
"Q. c #EDEDE9",
"!. c #E3E3E0",
"~. c #F0EEE7",
"^. c #F1EFE9",
"/. c #EFF0EA",
"(. c #F2F1EA",
"). c #F6F5EE",
"_. c #F3F2EB",
"`. c #F8F7EF",
"'. c #F9F7F0",
"]. c #FAF8F1",
"[. c #FDFCF5",
"{. c #FEFDF5",
"}. c #FEFCF5",
"|. c #FFFEF6",
" X c #FFFFF7",
".X c #FEFDF6",
"XX c #FDFCF4",
"oX c #FFFFF8",
"OX c #FFFFF9",
"+X c #FFFFFB",
"@X c #FFFFFE",
"#X c #FFFFFB",
"$X c #F7F6F0",
/* pixels */
"L L 3 * * * % & & L U P U s . X X # $ $ . # L L ",
"L 3 2 9 w 9 9 ` -.>.>.>.<.>.=._ 9 9 9 w $   < L ",
"L 2 8 t ` 3.l.A.P.I.I.I.I.I.P.S.z.d._ t 8 # % L ",
"q 2 9 k >.S.U.Q.{.#X#X#X#X#X{.(.T.G.2.c 9 ; @ 2 ",
"% 9 w } c.Y.Q.).{.{.{.{.{.{.XX'._.Y.n.X.t 8 o . ",
"% 9 t 3.G.R.'.{.{.{.{.{.{.{.{.{.{.!.G.4.c ; o . ",
"< & c l.U.(.{.{.{.(.].{.)._.{.{.{.).U.n._ .   % ",
"L 2  .Z._.$X{.].W.N.R.#XL.Z.~.).{.].Q.P.>.. & L ",
"L L d n.#X{.).J.:.) F.@XZ.X.<.B.).{.{.T.r.d L L ",
"L L J m.#X#XI.{ l ) G.@XG.=.l { G.).#XR.f.K L L ",
"L L J m.@X~.n.f _ n.~.@X).A.| l d.W.#XT.f.K L L ",
"L L J m.@XW.C.j.N.W.Z.l.D.E.C.j.n.W.#XR.f.K L L ",
"L L J m.#X`.W.W.(.H.=.l %.B.].E.E.].#XI.r.K L L ",
"L L J m.@X{.{.{.{.Z.*.Y | n.{.{.{.{.#XC.%.L L L ",
"L L K x.(.#X{.{.{.#XC.4.M._.{.{.{.{.#Xg.d K L L ",
"L L L { c.^.'.{.{.{.).W.~.{.{.{.].).T.<.g I I J ",
"L L L P Y <.L.^.`.].XX{.].].`.(.U.F.,.Q ^ p./ - ",
"L L L P p ( z.l.v.v.R.#XR.V.c.z.B.-.W t.s.s.y.6 ",
"L L P p , r | c c c :.d.:.` c ) X.j y 6.a.s.u.~ ",
"L L P q * w z _ v.N.Z.S.Z.b.:.t j w 0 ! u.i.5.n ",
"L L s 2 9 t k d.`.@X#X#X@X'.C.( t t 0 E q.w.$.r ",
"L L 3 2 w 9 c S.`.{.{.{.{.].L.=.t t w t A 8.@.f ",
"L P 3 9 t t X.].{.{.{.{.{.{.W.k.z t t 9 C 7.B d ",
"L L w w 9 c z.].{.{.{.{.{.{.].H.} t t x +.9.N L ",
"L 2 8 t 9 z j.].{.{.{.{.{.{.].K.} t u C @.@.z L ",
"L 2 9 t 9 z j.].{.{.{.{.{.{.].K.} t t C H F L L ",
"L 2 9 t 9 z j.].{.{.{.{.{.{.].K.} t u o.#.B L L ",
"L 2 9 t 9 z j.].{.{.{.{.{.{.].K.} j N @.@.[ L L ",
"L 2 9 t 9 z g.].{.{.{.{.{.{.'.H._ t N O.#.] L L ",
"L p 2 8 j *.A.XX{.{.{.{.{.{.XXT.g.c b H 7.Z L L ",
"L P p * z x./.].].].].XXXX].XX].R.:.B #.8.] L L ",
"L L P 3 4 &.F.H.L.L.P.T.Y.K.K.K.G.g.] +.#.' L L ",
"L L P 3 - W h._ }  .:.2.;.{ { } 2.V v S Z n L L ",
"L L L a 7 T g t t t j h g t w t t = m $.0...L L ",
"L L s 1 7 T r t t 9 e y e 9 t t w # > D G N L L ",
"L L p 5 R T g t t t r h g t t t t i : S M r L L ",
"L L p 5 5 4 8 t t t 9 4 8 t t t w 0 G 0.] q L L ",
"L L s s , . $ 9 t 9 * @ $ 8 t 9 * O F e.] 3 L L ",
"L L L P s % @ & 2 * @ + . $ 2 * . @ v S b q L L ",
"L L L L P s % + . . % & # . . . % q r b i p L L ",
"L L L L L L d @ + + p P q . + @ K L p 0 0 p L L ",
};
