/* XPM */
static char *result[] = {
/* columns rows colors chars-per-pixel */
"36 45 219 2 ",
"   c black",
".  c #030202",
"X  c #060505",
"o  c #070A05",
"O  c #010E0C",
"+  c #0B0B08",
"@  c #0C0A0A",
"#  c #0C0A0B",
"$  c #0B1007",
"%  c #11110D",
"&  c #16170F",
"*  c #130F10",
"=  c #051816",
"-  c #191415",
";  c #191516",
":  c #1E1B17",
">  c #1C1D14",
",  c #1C1718",
"<  c #1F1A1B",
"1  c #201A1B",
"2  c #221C1E",
"3  c #261F1F",
"4  c #212417",
"5  c #222F16",
"6  c #233017",
"7  c #2A3A1B",
"8  c #251E21",
"9  c #261E21",
"0  c #261F21",
"q  c #0B302C",
"w  c #1E3724",
"e  c #043832",
"r  c #133531",
"t  c #1D3835",
"y  c #1F3937",
"u  c #222020",
"i  c #292223",
"p  c #2A2223",
"a  c #282224",
"s  c #292224",
"d  c #2A2324",
"f  c #2C2425",
"g  c #2C2426",
"h  c #2C2526",
"j  c #2E2627",
"k  c #2E2628",
"l  c #202A29",
"z  c #242D2C",
"x  c #2E282A",
"c  c #332A27",
"v  c #302628",
"b  c #302829",
"n  c #332A29",
"m  c #30282A",
"M  c #32292B",
"N  c #33292B",
"B  c #332A2B",
"V  c #342F2B",
"C  c #33292C",
"Z  c #322A2C",
"A  c #332A2C",
"S  c #352D2D",
"D  c #27302F",
"F  c #2F332A",
"G  c #313425",
"H  c #38302F",
"J  c #2A3232",
"K  c #223B39",
"L  c #323030",
"P  c #3B3234",
"I  c #3F3738",
"U  c #403736",
"Y  c #443C37",
"T  c #443B3D",
"R  c #403F3D",
"E  c #463F3E",
"W  c #334720",
"Q  c #364B22",
"!  c #384D24",
"~  c #3E432C",
"^  c #3C5426",
"/  c #41432E",
"(  c #424D2F",
")  c #43502F",
"_  c #445D2C",
"`  c #404131",
"'  c #414531",
"]  c #464B34",
"[  c #4C4A39",
"{  c #475231",
"}  c #4B5034",
"|  c #54563E",
" . c #48652D",
".. c #4A6332",
"X. c #4C6733",
"o. c #4F6A36",
"O. c #516439",
"+. c #527235",
"@. c #537039",
"#. c #58783A",
"$. c #104B44",
"%. c #114F48",
"&. c #13574F",
"*. c #3A4D4B",
"=. c #12665D",
"-. c #474645",
";. c #484041",
":. c #494343",
">. c #494244",
",. c #4D4446",
"<. c #4D4546",
"1. c #4E4949",
"2. c gray31",
"3. c #554D4F",
"4. c #544F4F",
"5. c #5C5C43",
"6. c #465C5A",
"7. c #595151",
"8. c #585152",
"9. c #595454",
"0. c #5B5455",
"q. c #5D5756",
"w. c #625C5B",
"e. c #655E5E",
"r. c #5C6540",
"t. c #5E6543",
"y. c #5A7440",
"u. c #636C45",
"i. c #647847",
"p. c #787A56",
"a. c #557862",
"s. c #696363",
"d. c #6F6769",
"f. c #6F6F6B",
"g. c #777575",
"h. c #797172",
"j. c #7C7677",
"k. c #7F7977",
"l. c #2E8178",
"z. c #618341",
"x. c #6C904A",
"c. c #738050",
"v. c #7A8656",
"b. c #7C8857",
"n. c #789055",
"m. c #598B70",
"M. c #828D5B",
"N. c #85A05F",
"B. c #8E9166",
"V. c #8D9B65",
"C. c #94976A",
"Z. c #A0A274",
"A. c #259F86",
"S. c #31AC97",
"D. c #1ED0BD",
"F. c #37C3AB",
"G. c #2EC1B1",
"H. c #43C5B7",
"J. c #48C0B3",
"K. c #1AD5C1",
"L. c #34D4C3",
"P. c #898282",
"I. c #8B8683",
"U. c #888484",
"Y. c #8D8687",
"T. c #8E8988",
"R. c #908C88",
"E. c #99938B",
"W. c #979291",
"Q. c #979695",
"!. c #989390",
"~. c #9C9694",
"^. c #9C9999",
"/. c #A7A09F",
"(. c #98A8A6",
"). c #A6A2A2",
"_. c #A8A3A3",
"`. c #ABA8A3",
"'. c #B2AEA4",
"]. c #B1ADA9",
"[. c #B5B1B1",
"{. c #B7B4B4",
"}. c #BDBBBB",
"|. c #C2BBBA",
" X c #C4BFBF",
".X c #C8C0BF",
"XX c gray78",
"oX c #CAC7C1",
"OX c #C8C4C4",
"+X c #C9C6C6",
"@X c #CBC8C2",
"#X c #CCC9C9",
"$X c #CECDCD",
"%X c #D7D5CF",
"&X c #CCD5D1",
"*X c #D1D0D0",
"=X c #D2D2D2",
"-X c #DDDBD6",
";X c #DEDBD7",
":X c #D9D9D8",
">X c #DBDBDA",
",X c #DEDEDC",
"<X c #E3DEDA",
"1X c #E2E0D9",
"2X c #E4E2DB",
"3X c #E3E3E0",
"4X c #E8E8E4",
"5X c #E9E8E4",
"6X c #EEEDE8",
"7X c #F1EFE8",
"8X c #F3F2EC",
"9X c #F6F5EE",
"0X c #F8F7F0",
"qX c #FDFCF4",
"wX c #FDFDF4",
"eX c #FDFCF5",
"rX c #FEFDF4",
"tX c #FEFCF5",
"yX c #FEFDF5",
/* pixels */
"                                                                        ",
"                                                                        ",
"                                                                        ",
"                                                                        ",
"                                                                        ",
"                                                                        ",
"                                                                        ",
"                * - ; X                   - ; -                         ",
"                8 A N a 9.P.P.P.P.P.P.s.x M C M                         ",
"              - A P Y. X,XeXtXtXeXtXtX4XOX_.T M 9                       ",
"            X 0 N 3.+X3X6XyXyXqXyXyXqX8X5X$Xh.A h @                     ",
"            # N A _.*X8XtXeXtXtXeXtXtXeXtX=X[.,.Z ;                     ",
"              * ;.OX4XtXyXyXyXyXyXyXyXyXyX8X#Xd.,                       ",
"                P.4X8XeXyXyX].yXyX].yXyXyX0X4X|.                        ",
"                u rXyXtX%Xe.I yXyXe.e.].yXyXyX.X                        ",
"                  qXqXtXA A 7.yXyXI.A A @XyXyX.X                        ",
"                  eXyX].A e.2XyXyXyXk.A k.yXyX.X                        ",
"                  rXyX%X@X2XyXe.e.%X7X@X@XyXyX.X                        ",
"                  qXqXtXyXyXI.A A 7.yXyXyXyXyX/.                        ",
"                  eXyXeXyXyXyXk.e.2XyXyXyXyXyXR                         ",
"                  f.yXtXyXyXyX7X2XyXyXyXyXyX<XL                         ",
"                    2.XX9XyXyXyXyXyXyX0X>X}.6.r J.l.O                   ",
"                      Q.U.!.E.yXyX'.E.T.{.-.=.L.H.K.e                   ",
"                    * >.A c c e.e.U n A <., w S.G.D.a.                  ",
"                  # A Z w.qXyXyXqXyXoXm A A G A.F.m.&                   ",
"                  1 N g `.yXwXrXyXwX1Xq.b B 0 [ c.V.4                   ",
"                  A A 3 yXyXyXyXyXyXyXR.j A A : x.O.+                   ",
"                0 A d W.yXqXyXyXqXyXyX-X:.A H Y N.)                     ",
"              @ h A p W.rXyXwXrXyXwXrX;X:.B ` r.M.~                     ",
"              ; A A d W.yXyXyXyXyXyXyX;X:.A V y.@.o                     ",
"              ; Z A d W.yXqXyXyXqXyXyX-X:.A ' n.{                       ",
"              - A A p W.rXyXwXrXyXwXrX;X:.H | v.u.                      ",
"              X s A d W.yXyXyXyXyXyXyX;X:.S ( z.o.                      ",
"                  2 g.8XyXqXyXyXqXyXyXqX,XE ] n.i.                      ",
"                    *.&X4X5X4X6X8X4X4X5X:X~.} b.t.                      ",
"                    q (.1.4.0.j.^.0.8.1.).F !  .Q                       ",
"                  = &.l A f g D y k i M i % 5.C.p.                      ",
"                  = &.J B A g z t d B A A   5 #.W                       ",
"                  $.%.J A A A J K A A A A / ^ +.$                       ",
"                      , A M A , * v A M s > B.Z.                        ",
"                        < A <     * B 0 X o ..X.                        ",
"                        . # .       # X     7 _                         ",
"                                              6                         ",
"                                                                        ",
"                                                                        "
};
