/* XPM */
static char *_8bbbf582700480ecba22b33508e2a7a4SUP0nduc4k3gaGn[] = {
/* columns rows colors chars-per-pixel */
"48 60 21 1 ",
"  c None",
". c #221C1C",
"X c #352B1F",
"o c #332A2C",
"O c #3F5629",
"+ c #4B692F",
"@ c #114D46",
"# c #166159",
"$ c #5E5B45",
"% c #625D5C",
"& c #837F5F",
"* c #749A51",
"= c #38B8AA",
"- c #10DFC9",
"; c #64CFC4",
": c #BCB68A",
"> c #B6ACAD",
", c #BFB9B9",
"< c #BEBAB9",
"1 c gray83",
"2 c #FEFDF5",
/* pixels */
"                                                ",
"                                                ",
"                                                ",
"                                                ",
"                                                ",
"                                                ",
"                                                ",
"                                                ",
"                                                ",
"                                                ",
"           oooo             oooo                ",
"           ooooo%>>>>>>>>>%ooooo                ",
"          oooo,,12222222221,,oooo               ",
"          ooo,111222222222111,ooo               ",
"         oooo,122222222222221,oooo              ",
"         ooo,11222222222222211,ooo              ",
"          oo,12222222222222221,oo               ",
"           >1122222222222222211>                ",
"           >2222222o222o2222222>                ",
"            22222ooo222ooo22222>                ",
"            2222oooo222oooo2222>                ",
"            2222ooo22222ooo2222>                ",
"            222ooo2222222ooo222>                ",
"            22222222ooo22222222>                ",
"            2222222ooooo2222222>                ",
"            22222222ooo22222222                 ",
"            222222222o222222222                 ",
"             22222222222222222>                 ",
"              112222222222211>  =;              ",
"               1122222222211, -;;=-             ",
"               ,oooX222XXoo,  =-=--             ",
"              ooooXoooooooooo O==-=&            ",
"             oooo22222222oooooO--=$             ",
"             ooo.22222222.oooo $&:+             ",
"            ooo.2222222222.oooo$+*:             ",
"            ooo.2222222222.oooo **              ",
"           ooo.,2222222222,.oooo**              ",
"           ooo.,2222222222,.oo$&::              ",
"          oooo.,2222222222,.ooOO+O              ",
"          oooo.,2222222222,.ooo**               ",
"          oooo.,2222222222,.ooO*O               ",
"          oooo.,2222222222,.oo&::               ",
"          oooo.,2222222222,.o$O++               ",
"           ooo.,2222222222,.oo+**               ",
"            o.12222222222221.oO**               ",
"              12222222222221,$&::               ",
"              #1111112111111, ++O               ",
"              #,..ooo1ooo.., OO++               ",
"             #@.oo.oo@oo.oo. $&::               ",
"             #@oooo..@..oooo  O++               ",
"             #@oooooo@oooooo  +*O               ",
"            #@@oooooo@oooooo$O++                ",
"               oooooo oooooo &::                ",
"                oooo   oooo  O*O                ",
"                 oo     oo    *O                ",
"                              +O                ",
"                               O                ",
"                                                ",
"                                                ",
"                                                "
};
